<svg width="671" height="682" viewBox="0 0 671 682" fill="none" xmlns="http://www.w3.org/2000/svg">
<g clip-path="url(#clip0_125_4572)">
<path d="M204.194 443.665H197.628C197.097 443.665 196.664 443.231 196.664 442.7V436.135C196.664 435.604 197.097 435.17 197.628 435.17H204.194C204.725 435.17 205.16 435.604 205.16 436.135V442.7C205.16 443.231 204.725 443.665 204.194 443.665Z" stroke="#737A7F" stroke-width="0.481964" stroke-linecap="round" stroke-linejoin="round"/>
<path d="M199.032 443.503C199.032 443.298 199.2 443.128 199.407 443.128H202.415C202.621 443.128 202.79 443.298 202.79 443.503C202.79 443.708 202.621 443.878 202.415 443.878H199.407C199.2 443.878 199.032 443.708 199.032 443.503Z" fill="white"/>
<path d="M199.032 443.503C199.032 443.298 199.2 443.128 199.407 443.128H202.415C202.621 443.128 202.79 443.298 202.79 443.503C202.79 443.708 202.621 443.878 202.415 443.878H199.407C199.2 443.878 199.032 443.708 199.032 443.503Z" stroke="#737A7F" stroke-width="0.481964" stroke-linecap="round" stroke-linejoin="round"/>
<path d="M200.911 444.482C200.706 444.482 200.537 444.314 200.537 444.107V441.099C200.537 440.892 200.706 440.724 200.911 440.724C201.117 440.724 201.286 440.892 201.286 441.099V444.107C201.286 444.314 201.117 444.482 200.911 444.482Z" fill="white"/>
<path d="M200.911 444.482C200.706 444.482 200.537 444.314 200.537 444.107V441.099C200.537 440.892 200.706 440.724 200.911 440.724C201.117 440.724 201.286 440.892 201.286 441.099V444.107C201.286 444.314 201.117 444.482 200.911 444.482Z" stroke="#737A7F" stroke-width="0.481964" stroke-linecap="round" stroke-linejoin="round"/>
<path d="M544.904 110.629H550.966C551.454 110.629 551.856 111.029 551.856 111.519V117.581C551.856 118.072 551.454 118.472 550.966 118.472H544.904C544.414 118.472 544.015 118.072 544.015 117.581V111.519C544.015 111.029 544.414 110.629 544.904 110.629Z" stroke="#737A7F" stroke-width="0.481964" stroke-linecap="round" stroke-linejoin="round"/>
<path d="M549.669 110.781C549.669 110.971 549.515 111.126 549.324 111.126H546.547C546.357 111.126 546.2 110.971 546.2 110.781C546.2 110.59 546.357 110.436 546.547 110.436H549.324C549.515 110.436 549.669 110.59 549.669 110.781Z" fill="white"/>
<path d="M549.669 110.781C549.669 110.971 549.515 111.126 549.324 111.126H546.547C546.357 111.126 546.2 110.971 546.2 110.781C546.2 110.59 546.357 110.436 546.547 110.436H549.324C549.515 110.436 549.669 110.59 549.669 110.781Z" stroke="#737A7F" stroke-width="0.481964" stroke-linecap="round" stroke-linejoin="round"/>
<path d="M547.935 109.876C548.126 109.876 548.281 110.031 548.281 110.221V112.999C548.281 113.189 548.126 113.345 547.935 113.345C547.745 113.345 547.59 113.189 547.59 112.999V110.221C547.59 110.031 547.745 109.876 547.935 109.876Z" fill="white"/>
<path d="M547.935 109.876C548.126 109.876 548.281 110.031 548.281 110.221V112.999C548.281 113.189 548.126 113.345 547.935 113.345C547.745 113.345 547.59 113.189 547.59 112.999V110.221C547.59 110.031 547.745 109.876 547.935 109.876Z" stroke="#737A7F" stroke-width="0.481964" stroke-linecap="round" stroke-linejoin="round"/>
<path d="M234.201 436.191C234.201 437.027 233.524 437.702 232.689 437.702C231.853 437.702 231.178 437.027 231.178 436.191C231.178 435.355 231.853 434.679 232.689 434.679C233.524 434.679 234.201 435.355 234.201 436.191Z" fill="white"/>
<path d="M234.201 436.191C234.201 437.027 233.524 437.702 232.689 437.702C231.853 437.702 231.178 437.027 231.178 436.191C231.178 435.355 231.853 434.679 232.689 434.679C233.524 434.679 234.201 435.355 234.201 436.191Z" stroke="#737A7F" stroke-width="0.481964" stroke-linecap="round" stroke-linejoin="round"/>
<path d="M232.708 440.97C233.249 440.981 233.679 441.429 233.668 441.97C233.658 442.51 233.213 442.941 232.672 442.931C232.13 442.921 231.699 442.473 231.708 441.931C231.718 441.391 232.166 440.96 232.708 440.97Z" fill="white"/>
<path d="M232.708 440.97C233.249 440.981 233.679 441.429 233.668 441.97C233.658 442.51 233.213 442.941 232.672 442.931C232.13 442.921 231.699 442.473 231.708 441.931C231.718 441.391 232.166 440.96 232.708 440.97Z" stroke="#737A7F" stroke-width="0.481964" stroke-linecap="round" stroke-linejoin="round"/>
<path d="M237.78 434.658C238.56 434.672 239.179 435.316 239.164 436.095C239.15 436.875 238.506 437.494 237.728 437.479C236.95 437.465 236.328 436.821 236.343 436.042C236.358 435.264 237.001 434.645 237.78 434.658Z" fill="white"/>
<path d="M237.78 434.658C238.56 434.672 239.179 435.316 239.164 436.095C239.15 436.875 238.506 437.494 237.728 437.479C236.95 437.465 236.328 436.821 236.343 436.042C236.358 435.264 237.001 434.645 237.78 434.658Z" stroke="#737A7F" stroke-width="0.481964" stroke-linecap="round" stroke-linejoin="round"/>
<path d="M238.278 440.108C239.296 440.128 240.105 440.968 240.086 441.984C240.066 443.002 239.227 443.812 238.21 443.793C237.193 443.774 236.385 442.933 236.403 441.916C236.422 440.9 237.261 440.089 238.278 440.108Z" fill="white"/>
<path d="M238.278 440.108C239.296 440.128 240.105 440.968 240.086 441.984C240.066 443.002 239.227 443.812 238.21 443.793C237.193 443.774 236.385 442.933 236.403 441.916C236.422 440.9 237.261 440.089 238.278 440.108Z" stroke="#737A7F" stroke-width="0.481964" stroke-linecap="round" stroke-linejoin="round"/>
<path d="M253.031 433.262V445.361V433.262Z" fill="white"/>
<path d="M253.031 433.262V445.361" stroke="#737A7F" stroke-width="0.481964" stroke-linecap="round" stroke-linejoin="round"/>
<path d="M240.94 433.262V445.361V433.262Z" fill="white"/>
<path d="M240.94 433.262V445.361" stroke="#737A7F" stroke-width="0.481964" stroke-linecap="round" stroke-linejoin="round"/>
<path d="M230.32 433.262V445.361V433.262Z" fill="white"/>
<path d="M230.32 433.262V445.361" stroke="#737A7F" stroke-width="0.481964" stroke-linecap="round" stroke-linejoin="round"/>
<path d="M579.019 117.653C579.019 116.817 579.695 116.142 580.53 116.142C581.366 116.142 582.041 116.817 582.041 117.653C582.041 118.489 581.366 119.165 580.53 119.165C579.695 119.165 579.019 118.489 579.019 117.653Z" fill="white"/>
<path d="M579.019 117.653C579.019 116.817 579.695 116.142 580.53 116.142C581.366 116.142 582.041 116.817 582.041 117.653C582.041 118.489 581.366 119.165 580.53 119.165C579.695 119.165 579.019 118.489 579.019 117.653Z" stroke="#737A7F" stroke-width="0.481964" stroke-linecap="round" stroke-linejoin="round"/>
<path d="M580.512 112.875C579.97 112.864 579.541 112.417 579.551 111.875C579.56 111.335 580.006 110.904 580.548 110.914C581.089 110.925 581.519 111.372 581.512 111.914C581.501 112.454 581.053 112.885 580.512 112.875Z" fill="white"/>
<path d="M580.512 112.875C579.97 112.864 579.541 112.417 579.551 111.875C579.56 111.335 580.006 110.904 580.548 110.914C581.089 110.925 581.519 111.372 581.512 111.914C581.501 112.454 581.053 112.885 580.512 112.875Z" stroke="#737A7F" stroke-width="0.481964" stroke-linecap="round" stroke-linejoin="round"/>
<path d="M575.439 119.187C574.66 119.173 574.041 118.529 574.056 117.75C574.069 116.972 574.712 116.352 575.491 116.366C576.269 116.381 576.891 117.024 576.876 117.803C576.861 118.581 576.219 119.2 575.439 119.187Z" fill="white"/>
<path d="M575.439 119.187C574.66 119.173 574.041 118.529 574.056 117.75C574.069 116.972 574.712 116.352 575.491 116.366C576.269 116.381 576.891 117.024 576.876 117.803C576.861 118.581 576.219 119.2 575.439 119.187Z" stroke="#737A7F" stroke-width="0.481964" stroke-linecap="round" stroke-linejoin="round"/>
<path d="M574.94 113.736C573.923 113.716 573.114 112.876 573.133 111.86C573.152 110.842 573.991 110.033 575.009 110.051C576.026 110.07 576.834 110.911 576.816 111.928C576.797 112.944 575.958 113.755 574.94 113.736Z" fill="white"/>
<path d="M574.94 113.736C573.923 113.716 573.114 112.876 573.133 111.86C573.152 110.842 573.991 110.033 575.009 110.051C576.026 110.07 576.834 110.911 576.816 111.928C576.797 112.944 575.958 113.755 574.94 113.736Z" stroke="#737A7F" stroke-width="0.481964" stroke-linecap="round" stroke-linejoin="round"/>
<path d="M602.505 120.174V108.075V120.174Z" fill="white"/>
<path d="M602.505 120.174V108.075" stroke="#737A7F" stroke-width="0.481964" stroke-linecap="round" stroke-linejoin="round"/>
<path d="M572.279 120.582V108.482V120.582Z" fill="white"/>
<path d="M572.279 120.582V108.482" stroke="#737A7F" stroke-width="0.481964" stroke-linecap="round" stroke-linejoin="round"/>
<path d="M582.898 120.582V108.482V120.582Z" fill="white"/>
<path d="M582.898 120.582V108.482" stroke="#737A7F" stroke-width="0.481964" stroke-linecap="round" stroke-linejoin="round"/>
<path d="M354.055 530.233H317.296V492.044H354.055V530.233Z" stroke="#737A7F" stroke-width="0.481964" stroke-linecap="round" stroke-linejoin="round"/>
<path d="M316.122 492.004V530.235" stroke="#737A7F" stroke-width="0.481964" stroke-linecap="round" stroke-linejoin="round"/>
<path d="M355.229 492.004V530.235" stroke="#737A7F" stroke-width="0.481964" stroke-linecap="round" stroke-linejoin="round"/>
<path d="M318.53 493.476H352.838" stroke="#737A7F" stroke-width="1.44589" stroke-linecap="round" stroke-linejoin="round"/>
<path d="M318.53 493.476H352.838" stroke="#737A7F" stroke-width="1.44589" stroke-linecap="round" stroke-linejoin="round"/>
<path d="M318.53 528.498H352.838" stroke="#737A7F" stroke-width="1.44589" stroke-linecap="round" stroke-linejoin="round"/>
<path d="M350.628 495.109V497.355L351.854 501.44H352.671V520.973H351.854L350.628 525.059V527.304" stroke="#737A7F" stroke-width="0.481964" stroke-linecap="round" stroke-linejoin="round"/>
<path d="M320.572 527.304V525.058L319.346 520.973H318.529V501.44H319.346L320.572 497.354V495.109" stroke="#737A7F" stroke-width="0.481964" stroke-linecap="round" stroke-linejoin="round"/>
<path d="M343.035 490.002H325.472V486.123H343.035V490.002Z" stroke="#737A7F" stroke-width="0.481964" stroke-linecap="round" stroke-linejoin="round"/>
<path d="M459.037 487.917H495.796V526.106H459.037V487.917Z" stroke="#737A7F" stroke-width="0.481964" stroke-linecap="round" stroke-linejoin="round"/>
<path d="M496.971 526.146V487.915" stroke="#737A7F" stroke-width="0.481964" stroke-linecap="round" stroke-linejoin="round"/>
<path d="M457.863 526.146V487.915" stroke="#737A7F" stroke-width="0.481964" stroke-linecap="round" stroke-linejoin="round"/>
<path d="M494.563 524.674H460.255" stroke="#737A7F" stroke-width="1.44589" stroke-linecap="round" stroke-linejoin="round"/>
<path d="M494.563 524.674H460.255" stroke="#737A7F" stroke-width="1.44589" stroke-linecap="round" stroke-linejoin="round"/>
<path d="M494.563 489.651H460.255" stroke="#737A7F" stroke-width="1.44589" stroke-linecap="round" stroke-linejoin="round"/>
<path d="M462.464 523.041V520.794L461.238 516.71H460.421V497.177H461.238L462.464 493.092V490.846" stroke="#737A7F" stroke-width="0.481964" stroke-linecap="round" stroke-linejoin="round"/>
<path d="M492.521 490.845V493.091L493.747 497.176H494.563V516.709H493.747L492.521 520.793V523.04" stroke="#737A7F" stroke-width="0.481964" stroke-linecap="round" stroke-linejoin="round"/>
<path d="M470.056 528.147H487.62V532.026H470.056V528.147Z" stroke="#737A7F" stroke-width="0.481964" stroke-linecap="round" stroke-linejoin="round"/>
<mask id="mask0_125_4572" style="mask-type:luminance" maskUnits="userSpaceOnUse" x="554" y="410" width="48" height="41">
<path d="M554.372 450.667H601.379V410.354H554.372V450.667Z" fill="white"/>
</mask>
<g mask="url(#mask0_125_4572)">
<g opacity="0.300003">
<path d="M554.657 417.104H560.513V423.776H554.657V417.104Z" fill="#CCD5D3"/>
<path d="M554.656 417.104H560.512V423.775H554.656V417.104Z" stroke="white" stroke-width="0.481964" stroke-miterlimit="10" stroke-linecap="round" stroke-linejoin="round"/>
<path d="M554.657 423.774H560.513V430.445H554.657V423.774Z" fill="#CCD5D3"/>
<path d="M554.656 423.775H560.512V430.447H554.656V423.775Z" stroke="white" stroke-width="0.481964" stroke-miterlimit="10" stroke-linecap="round" stroke-linejoin="round"/>
<path d="M554.657 430.446H560.513V437.118H554.657V430.446Z" fill="#CCD5D3"/>
<path d="M554.656 430.446H560.512V437.118H554.656V430.446Z" stroke="white" stroke-width="0.481964" stroke-miterlimit="10" stroke-linecap="round" stroke-linejoin="round"/>
<path d="M554.657 437.119H560.513V443.791H554.657V437.119Z" fill="#CCD5D3"/>
<path d="M554.656 437.119H560.512V443.791H554.656V437.119Z" stroke="white" stroke-width="0.481964" stroke-miterlimit="10" stroke-linecap="round" stroke-linejoin="round"/>
<path d="M554.657 443.789H560.513V450.461H554.657V443.789Z" fill="#CCD5D3"/>
<path d="M554.656 443.79H560.512V450.461H554.656V443.79Z" stroke="white" stroke-width="0.481964" stroke-miterlimit="10" stroke-linecap="round" stroke-linejoin="round"/>
<path d="M560.464 417.104H566.32V423.776H560.464V417.104Z" fill="#CCD5D3"/>
<path d="M560.464 417.104H566.321V423.775H560.464V417.104Z" stroke="white" stroke-width="0.481964" stroke-miterlimit="10" stroke-linecap="round" stroke-linejoin="round"/>
<path d="M560.464 423.774H566.32V430.445H560.464V423.774Z" fill="#CCD5D3"/>
<path d="M560.464 423.775H566.321V430.447H560.464V423.775Z" stroke="white" stroke-width="0.481964" stroke-miterlimit="10" stroke-linecap="round" stroke-linejoin="round"/>
<path d="M560.464 430.446H566.32V437.118H560.464V430.446Z" fill="#CCD5D3"/>
<path d="M560.464 430.446H566.321V437.118H560.464V430.446Z" stroke="white" stroke-width="0.481964" stroke-miterlimit="10" stroke-linecap="round" stroke-linejoin="round"/>
<path d="M560.464 437.119H566.32V443.791H560.464V437.119Z" fill="#CCD5D3"/>
<path d="M560.464 437.119H566.321V443.791H560.464V437.119Z" stroke="white" stroke-width="0.481964" stroke-miterlimit="10" stroke-linecap="round" stroke-linejoin="round"/>
<path d="M560.464 443.789H566.32V450.461H560.464V443.789Z" fill="#CCD5D3"/>
<path d="M560.464 443.79H566.321V450.461H560.464V443.79Z" stroke="white" stroke-width="0.481964" stroke-miterlimit="10" stroke-linecap="round" stroke-linejoin="round"/>
<path d="M566.273 417.104H572.129V423.776H566.273V417.104Z" fill="#CCD5D3"/>
<path d="M566.273 417.104H572.129V423.775H566.273V417.104Z" stroke="white" stroke-width="0.481964" stroke-miterlimit="10" stroke-linecap="round" stroke-linejoin="round"/>
<path d="M566.273 423.774H572.129V430.445H566.273V423.774Z" fill="#CCD5D3"/>
<path d="M566.273 423.775H572.129V430.447H566.273V423.775Z" stroke="white" stroke-width="0.481964" stroke-miterlimit="10" stroke-linecap="round" stroke-linejoin="round"/>
<path d="M566.273 430.446H572.129V437.118H566.273V430.446Z" fill="#CCD5D3"/>
<path d="M566.273 430.446H572.129V437.118H566.273V430.446Z" stroke="white" stroke-width="0.481964" stroke-miterlimit="10" stroke-linecap="round" stroke-linejoin="round"/>
<path d="M566.273 437.119H572.129V443.791H566.273V437.119Z" fill="#CCD5D3"/>
<path d="M566.273 437.119H572.129V443.791H566.273V437.119Z" stroke="white" stroke-width="0.481964" stroke-miterlimit="10" stroke-linecap="round" stroke-linejoin="round"/>
<path d="M566.273 443.789H572.129V450.461H566.273V443.789Z" fill="#CCD5D3"/>
<path d="M566.273 443.79H572.129V450.461H566.273V443.79Z" stroke="white" stroke-width="0.481964" stroke-miterlimit="10" stroke-linecap="round" stroke-linejoin="round"/>
<path d="M572.082 417.104H577.939V423.776H572.082V417.104Z" fill="#CCD5D3"/>
<path d="M572.081 417.104H577.938V423.775H572.081V417.104Z" stroke="white" stroke-width="0.481964" stroke-miterlimit="10" stroke-linecap="round" stroke-linejoin="round"/>
<path d="M572.082 423.774H577.939V430.445H572.082V423.774Z" fill="#CCD5D3"/>
<path d="M572.081 423.775H577.938V430.447H572.081V423.775Z" stroke="white" stroke-width="0.481964" stroke-miterlimit="10" stroke-linecap="round" stroke-linejoin="round"/>
<path d="M572.082 430.446H577.939V437.118H572.082V430.446Z" fill="#CCD5D3"/>
<path d="M572.081 430.446H577.938V437.118H572.081V430.446Z" stroke="white" stroke-width="0.481964" stroke-miterlimit="10" stroke-linecap="round" stroke-linejoin="round"/>
<path d="M572.082 437.119H577.939V443.791H572.082V437.119Z" fill="#CCD5D3"/>
<path d="M572.081 437.119H577.938V443.791H572.081V437.119Z" stroke="white" stroke-width="0.481964" stroke-miterlimit="10" stroke-linecap="round" stroke-linejoin="round"/>
<path d="M572.082 443.789H577.939V450.461H572.082V443.789Z" fill="#CCD5D3"/>
<path d="M572.081 443.79H577.938V450.461H572.081V443.79Z" stroke="white" stroke-width="0.481964" stroke-miterlimit="10" stroke-linecap="round" stroke-linejoin="round"/>
<path d="M577.887 417.104H583.744V423.776H577.887V417.104Z" fill="#CCD5D3"/>
<path d="M577.887 417.104H583.744V423.775H577.887V417.104Z" stroke="white" stroke-width="0.481964" stroke-miterlimit="10" stroke-linecap="round" stroke-linejoin="round"/>
<path d="M577.887 423.774H583.744V430.445H577.887V423.774Z" fill="#CCD5D3"/>
<path d="M577.887 423.775H583.744V430.447H577.887V423.775Z" stroke="white" stroke-width="0.481964" stroke-miterlimit="10" stroke-linecap="round" stroke-linejoin="round"/>
<path d="M577.887 430.446H583.744V437.118H577.887V430.446Z" fill="#CCD5D3"/>
<path d="M577.887 430.446H583.744V437.118H577.887V430.446Z" stroke="white" stroke-width="0.481964" stroke-miterlimit="10" stroke-linecap="round" stroke-linejoin="round"/>
<path d="M577.887 437.119H583.744V443.791H577.887V437.119Z" fill="#CCD5D3"/>
<path d="M577.887 437.119H583.744V443.791H577.887V437.119Z" stroke="white" stroke-width="0.481964" stroke-miterlimit="10" stroke-linecap="round" stroke-linejoin="round"/>
<path d="M577.887 443.789H583.744V450.461H577.887V443.789Z" fill="#CCD5D3"/>
<path d="M577.887 443.79H583.744V450.461H577.887V443.79Z" stroke="white" stroke-width="0.481964" stroke-miterlimit="10" stroke-linecap="round" stroke-linejoin="round"/>
<path d="M583.697 417.104H589.553V423.776H583.697V417.104Z" fill="#CCD5D3"/>
<path d="M583.696 417.104H589.552V423.775H583.696V417.104Z" stroke="white" stroke-width="0.481964" stroke-miterlimit="10" stroke-linecap="round" stroke-linejoin="round"/>
<path d="M583.697 423.774H589.553V430.445H583.697V423.774Z" fill="#CCD5D3"/>
<path d="M583.696 423.775H589.552V430.447H583.696V423.775Z" stroke="white" stroke-width="0.481964" stroke-miterlimit="10" stroke-linecap="round" stroke-linejoin="round"/>
<path d="M583.697 430.446H589.553V437.118H583.697V430.446Z" fill="#CCD5D3"/>
<path d="M583.696 430.446H589.552V437.118H583.696V430.446Z" stroke="white" stroke-width="0.481964" stroke-miterlimit="10" stroke-linecap="round" stroke-linejoin="round"/>
<path d="M583.697 437.119H589.553V443.791H583.697V437.119Z" fill="#CCD5D3"/>
<path d="M583.696 437.119H589.552V443.791H583.696V437.119Z" stroke="white" stroke-width="0.481964" stroke-miterlimit="10" stroke-linecap="round" stroke-linejoin="round"/>
<path d="M583.697 443.789H589.553V450.461H583.697V443.789Z" fill="#CCD5D3"/>
<path d="M583.696 443.79H589.552V450.461H583.696V443.79Z" stroke="white" stroke-width="0.481964" stroke-miterlimit="10" stroke-linecap="round" stroke-linejoin="round"/>
<path d="M589.504 417.104H595.361V423.776H589.504V417.104Z" fill="#CCD5D3"/>
<path d="M589.505 417.104H595.361V423.775H589.505V417.104Z" stroke="white" stroke-width="0.481964" stroke-miterlimit="10" stroke-linecap="round" stroke-linejoin="round"/>
<path d="M589.504 423.774H595.361V430.445H589.504V423.774Z" fill="#CCD5D3"/>
<path d="M589.505 423.775H595.361V430.447H589.505V423.775Z" stroke="white" stroke-width="0.481964" stroke-miterlimit="10" stroke-linecap="round" stroke-linejoin="round"/>
<path d="M589.504 430.446H595.361V437.118H589.504V430.446Z" fill="#CCD5D3"/>
<path d="M589.505 430.446H595.361V437.118H589.505V430.446Z" stroke="white" stroke-width="0.481964" stroke-miterlimit="10" stroke-linecap="round" stroke-linejoin="round"/>
<path d="M589.504 437.119H595.361V443.791H589.504V437.119Z" fill="#CCD5D3"/>
<path d="M589.505 437.119H595.361V443.791H589.505V437.119Z" stroke="white" stroke-width="0.481964" stroke-miterlimit="10" stroke-linecap="round" stroke-linejoin="round"/>
<path d="M589.504 443.789H595.361V450.461H589.504V443.789Z" fill="#CCD5D3"/>
<path d="M589.505 443.79H595.361V450.461H589.505V443.79Z" stroke="white" stroke-width="0.481964" stroke-miterlimit="10" stroke-linecap="round" stroke-linejoin="round"/>
<path d="M595.312 417.104H601.169V423.776H595.312V417.104Z" fill="#CCD5D3"/>
<path d="M595.312 417.104H601.169V423.775H595.312V417.104Z" stroke="white" stroke-width="0.481964" stroke-miterlimit="10" stroke-linecap="round" stroke-linejoin="round"/>
<path d="M554.657 410.562H560.513V417.234H554.657V410.562Z" fill="#CCD5D3"/>
<path d="M554.656 410.562H560.512V417.234H554.656V410.562Z" stroke="white" stroke-width="0.481964" stroke-miterlimit="10" stroke-linecap="round" stroke-linejoin="round"/>
<path d="M560.464 410.562H566.32V417.234H560.464V410.562Z" fill="#CCD5D3"/>
<path d="M560.464 410.562H566.321V417.234H560.464V410.562Z" stroke="white" stroke-width="0.481964" stroke-miterlimit="10" stroke-linecap="round" stroke-linejoin="round"/>
<path d="M566.273 410.562H572.129V417.234H566.273V410.562Z" fill="#CCD5D3"/>
<path d="M566.273 410.562H572.129V417.234H566.273V410.562Z" stroke="white" stroke-width="0.481964" stroke-miterlimit="10" stroke-linecap="round" stroke-linejoin="round"/>
<path d="M572.082 410.562H577.939V417.234H572.082V410.562Z" fill="#CCD5D3"/>
<path d="M572.081 410.562H577.938V417.234H572.081V410.562Z" stroke="white" stroke-width="0.481964" stroke-miterlimit="10" stroke-linecap="round" stroke-linejoin="round"/>
<path d="M577.887 410.562H583.744V417.234H577.887V410.562Z" fill="#CCD5D3"/>
<path d="M577.887 410.562H583.744V417.234H577.887V410.562Z" stroke="white" stroke-width="0.481964" stroke-miterlimit="10" stroke-linecap="round" stroke-linejoin="round"/>
<path d="M583.697 410.562H589.553V417.234H583.697V410.562Z" fill="#CCD5D3"/>
<path d="M583.696 410.562H589.552V417.234H583.696V410.562Z" stroke="white" stroke-width="0.481964" stroke-miterlimit="10" stroke-linecap="round" stroke-linejoin="round"/>
<path d="M589.504 410.562H595.361V417.234H589.504V410.562Z" fill="#CCD5D3"/>
<path d="M589.505 410.562H595.361V417.234H589.505V410.562Z" stroke="white" stroke-width="0.481964" stroke-miterlimit="10" stroke-linecap="round" stroke-linejoin="round"/>
<path d="M595.312 410.562H601.169V417.234H595.312V410.562Z" fill="#CCD5D3"/>
<path d="M595.312 410.562H601.169V417.234H595.312V410.562Z" stroke="white" stroke-width="0.481964" stroke-miterlimit="10" stroke-linecap="round" stroke-linejoin="round"/>
<path d="M595.312 423.774H601.169V430.445H595.312V423.774Z" fill="#CCD5D3"/>
<path d="M595.312 423.775H601.169V430.447H595.312V423.775Z" stroke="white" stroke-width="0.481964" stroke-miterlimit="10" stroke-linecap="round" stroke-linejoin="round"/>
<path d="M595.312 430.446H601.169V437.118H595.312V430.446Z" fill="#CCD5D3"/>
<path d="M595.312 430.446H601.169V437.118H595.312V430.446Z" stroke="white" stroke-width="0.481964" stroke-miterlimit="10" stroke-linecap="round" stroke-linejoin="round"/>
<path d="M595.312 437.119H601.169V443.791H595.312V437.119Z" fill="#CCD5D3"/>
<path d="M595.312 437.119H601.169V443.791H595.312V437.119Z" stroke="white" stroke-width="0.481964" stroke-miterlimit="10" stroke-linecap="round" stroke-linejoin="round"/>
<path d="M595.312 443.789H601.169V450.461H595.312V443.789Z" fill="#CCD5D3"/>
<path d="M595.312 443.79H601.169V450.461H595.312V443.79Z" stroke="white" stroke-width="0.481964" stroke-miterlimit="10" stroke-linecap="round" stroke-linejoin="round"/>
</g>
</g>
<mask id="mask1_125_4572" style="mask-type:luminance" maskUnits="userSpaceOnUse" x="204" y="481" width="35" height="45">
<path d="M204.204 525.191H238.418V481.606H204.204V525.191Z" fill="white"/>
</mask>
<g mask="url(#mask1_125_4572)">
<g opacity="0.300003">
<path d="M211.194 524.985H204.444V518.783H211.194V524.985Z" fill="#CCD5D3"/>
<path d="M211.195 524.985H204.445V518.784H211.195V524.985Z" stroke="white" stroke-width="0.481964" stroke-miterlimit="10" stroke-linecap="round" stroke-linejoin="round"/>
<path d="M217.946 524.984H211.196V518.783H217.946V524.984Z" fill="#CCD5D3"/>
<path d="M217.946 524.985H211.196V518.784H217.946V524.985Z" stroke="white" stroke-width="0.481964" stroke-miterlimit="10" stroke-linecap="round" stroke-linejoin="round"/>
<path d="M224.695 524.984H217.945V518.783H224.695V524.984Z" fill="#CCD5D3"/>
<path d="M224.695 524.985H217.945V518.784H224.695V524.985Z" stroke="white" stroke-width="0.481964" stroke-miterlimit="10" stroke-linecap="round" stroke-linejoin="round"/>
<path d="M231.447 524.984H224.697V518.783H231.447V524.984Z" fill="#CCD5D3"/>
<path d="M231.447 524.985H224.696V518.784H231.447V524.985Z" stroke="white" stroke-width="0.481964" stroke-miterlimit="10" stroke-linecap="round" stroke-linejoin="round"/>
<path d="M238.198 524.984H231.447V518.783H238.198V524.984Z" fill="#CCD5D3"/>
<path d="M238.198 524.985H231.447V518.784H238.198V524.985Z" stroke="white" stroke-width="0.481964" stroke-miterlimit="10" stroke-linecap="round" stroke-linejoin="round"/>
<path d="M211.194 518.835H204.444V512.634H211.194V518.835Z" fill="#CCD5D3"/>
<path d="M211.195 518.835H204.445V512.633H211.195V518.835Z" stroke="white" stroke-width="0.481964" stroke-miterlimit="10" stroke-linecap="round" stroke-linejoin="round"/>
<path d="M217.946 518.835H211.196V512.634H217.946V518.835Z" fill="#CCD5D3"/>
<path d="M217.946 518.835H211.196V512.633H217.946V518.835Z" stroke="white" stroke-width="0.481964" stroke-miterlimit="10" stroke-linecap="round" stroke-linejoin="round"/>
<path d="M224.695 518.835H217.945V512.634H224.695V518.835Z" fill="#CCD5D3"/>
<path d="M224.695 518.835H217.945V512.633H224.695V518.835Z" stroke="white" stroke-width="0.481964" stroke-miterlimit="10" stroke-linecap="round" stroke-linejoin="round"/>
<path d="M231.447 518.835H224.697V512.634H231.447V518.835Z" fill="#CCD5D3"/>
<path d="M231.447 518.835H224.696V512.633H231.447V518.835Z" stroke="white" stroke-width="0.481964" stroke-miterlimit="10" stroke-linecap="round" stroke-linejoin="round"/>
<path d="M238.198 518.835H231.447V512.634H238.198V518.835Z" fill="#CCD5D3"/>
<path d="M238.198 518.835H231.447V512.633H238.198V518.835Z" stroke="white" stroke-width="0.481964" stroke-miterlimit="10" stroke-linecap="round" stroke-linejoin="round"/>
<path d="M211.194 512.685H204.444V506.483H211.194V512.685Z" fill="#CCD5D3"/>
<path d="M211.195 512.686H204.445V506.484H211.195V512.686Z" stroke="white" stroke-width="0.481964" stroke-miterlimit="10" stroke-linecap="round" stroke-linejoin="round"/>
<path d="M217.946 512.685H211.196V506.483H217.946V512.685Z" fill="#CCD5D3"/>
<path d="M217.946 512.686H211.196V506.484H217.946V512.686Z" stroke="white" stroke-width="0.481964" stroke-miterlimit="10" stroke-linecap="round" stroke-linejoin="round"/>
<path d="M224.695 512.685H217.945V506.483H224.695V512.685Z" fill="#CCD5D3"/>
<path d="M224.695 512.686H217.945V506.484H224.695V512.686Z" stroke="white" stroke-width="0.481964" stroke-miterlimit="10" stroke-linecap="round" stroke-linejoin="round"/>
<path d="M231.447 512.685H224.697V506.483H231.447V512.685Z" fill="#CCD5D3"/>
<path d="M231.447 512.686H224.696V506.484H231.447V512.686Z" stroke="white" stroke-width="0.481964" stroke-miterlimit="10" stroke-linecap="round" stroke-linejoin="round"/>
<path d="M238.198 512.685H231.447V506.483H238.198V512.685Z" fill="#CCD5D3"/>
<path d="M238.198 512.686H231.447V506.484H238.198V512.686Z" stroke="white" stroke-width="0.481964" stroke-miterlimit="10" stroke-linecap="round" stroke-linejoin="round"/>
<path d="M211.194 506.536H204.444V500.335H211.194V506.536Z" fill="#CCD5D3"/>
<path d="M211.195 506.536H204.445V500.334H211.195V506.536Z" stroke="white" stroke-width="0.481964" stroke-miterlimit="10" stroke-linecap="round" stroke-linejoin="round"/>
<path d="M217.946 506.536H211.196V500.335H217.946V506.536Z" fill="#CCD5D3"/>
<path d="M217.946 506.536H211.196V500.334H217.946V506.536Z" stroke="white" stroke-width="0.481964" stroke-miterlimit="10" stroke-linecap="round" stroke-linejoin="round"/>
<path d="M224.695 506.536H217.945V500.335H224.695V506.536Z" fill="#CCD5D3"/>
<path d="M224.695 506.536H217.945V500.334H224.695V506.536Z" stroke="white" stroke-width="0.481964" stroke-miterlimit="10" stroke-linecap="round" stroke-linejoin="round"/>
<path d="M231.447 506.536H224.697V500.335H231.447V506.536Z" fill="#CCD5D3"/>
<path d="M231.447 506.536H224.696V500.334H231.447V506.536Z" stroke="white" stroke-width="0.481964" stroke-miterlimit="10" stroke-linecap="round" stroke-linejoin="round"/>
<path d="M238.198 506.536H231.447V500.335H238.198V506.536Z" fill="#CCD5D3"/>
<path d="M238.198 506.536H231.447V500.334H238.198V506.536Z" stroke="white" stroke-width="0.481964" stroke-miterlimit="10" stroke-linecap="round" stroke-linejoin="round"/>
<path d="M211.194 500.386H204.444V494.185H211.194V500.386Z" fill="#CCD5D3"/>
<path d="M211.195 500.386H204.445V494.185H211.195V500.386Z" stroke="white" stroke-width="0.481964" stroke-miterlimit="10" stroke-linecap="round" stroke-linejoin="round"/>
<path d="M217.946 500.386H211.196V494.185H217.946V500.386Z" fill="#CCD5D3"/>
<path d="M217.946 500.386H211.196V494.185H217.946V500.386Z" stroke="white" stroke-width="0.481964" stroke-miterlimit="10" stroke-linecap="round" stroke-linejoin="round"/>
<path d="M224.695 500.386H217.945V494.185H224.695V500.386Z" fill="#CCD5D3"/>
<path d="M224.695 500.386H217.945V494.185H224.695V500.386Z" stroke="white" stroke-width="0.481964" stroke-miterlimit="10" stroke-linecap="round" stroke-linejoin="round"/>
<path d="M231.447 500.386H224.697V494.185H231.447V500.386Z" fill="#CCD5D3"/>
<path d="M231.447 500.386H224.696V494.185H231.447V500.386Z" stroke="white" stroke-width="0.481964" stroke-miterlimit="10" stroke-linecap="round" stroke-linejoin="round"/>
<path d="M238.198 500.386H231.447V494.185H238.198V500.386Z" fill="#CCD5D3"/>
<path d="M238.198 500.386H231.447V494.185H238.198V500.386Z" stroke="white" stroke-width="0.481964" stroke-miterlimit="10" stroke-linecap="round" stroke-linejoin="round"/>
<path d="M211.194 494.235H204.444V488.033H211.194V494.235Z" fill="#CCD5D3"/>
<path d="M211.195 494.235H204.445V488.034H211.195V494.235Z" stroke="white" stroke-width="0.481964" stroke-miterlimit="10" stroke-linecap="round" stroke-linejoin="round"/>
<path d="M217.946 494.235H211.196V488.033H217.946V494.235Z" fill="#CCD5D3"/>
<path d="M217.946 494.235H211.196V488.034H217.946V494.235Z" stroke="white" stroke-width="0.481964" stroke-miterlimit="10" stroke-linecap="round" stroke-linejoin="round"/>
<path d="M224.695 494.235H217.945V488.033H224.695V494.235Z" fill="#CCD5D3"/>
<path d="M224.695 494.235H217.945V488.034H224.695V494.235Z" stroke="white" stroke-width="0.481964" stroke-miterlimit="10" stroke-linecap="round" stroke-linejoin="round"/>
<path d="M231.447 494.235H224.697V488.033H231.447V494.235Z" fill="#CCD5D3"/>
<path d="M231.447 494.235H224.696V488.034H231.447V494.235Z" stroke="white" stroke-width="0.481964" stroke-miterlimit="10" stroke-linecap="round" stroke-linejoin="round"/>
<path d="M238.198 494.235H231.447V488.033H238.198V494.235Z" fill="#CCD5D3"/>
<path d="M238.198 494.235H231.447V488.034H238.198V494.235Z" stroke="white" stroke-width="0.481964" stroke-miterlimit="10" stroke-linecap="round" stroke-linejoin="round"/>
<path d="M211.194 488.086H204.444V481.885H211.194V488.086Z" fill="#CCD5D3"/>
<path d="M211.195 488.086H204.445V481.885H211.195V488.086Z" stroke="white" stroke-width="0.481964" stroke-miterlimit="10" stroke-linecap="round" stroke-linejoin="round"/>
<path d="M217.946 488.086H211.196V481.885H217.946V488.086Z" fill="#CCD5D3"/>
<path d="M217.946 488.086H211.196V481.885H217.946V488.086Z" stroke="white" stroke-width="0.481964" stroke-miterlimit="10" stroke-linecap="round" stroke-linejoin="round"/>
<path d="M224.695 488.086H217.945V481.885H224.695V488.086Z" fill="#CCD5D3"/>
<path d="M224.695 488.086H217.945V481.885H224.695V488.086Z" stroke="white" stroke-width="0.481964" stroke-miterlimit="10" stroke-linecap="round" stroke-linejoin="round"/>
<path d="M231.447 488.086H224.697V481.885H231.447V488.086Z" fill="#CCD5D3"/>
<path d="M231.447 488.086H224.696V481.885H231.447V488.086Z" stroke="white" stroke-width="0.481964" stroke-miterlimit="10" stroke-linecap="round" stroke-linejoin="round"/>
<path d="M238.198 488.086H231.447V481.885H238.198V488.086Z" fill="#CCD5D3"/>
<path d="M238.198 488.086H231.447V481.885H238.198V488.086Z" stroke="white" stroke-width="0.481964" stroke-miterlimit="10" stroke-linecap="round" stroke-linejoin="round"/>
</g>
</g>
<mask id="mask2_125_4572" style="mask-type:luminance" maskUnits="userSpaceOnUse" x="270" y="357" width="35" height="69">
<path d="M270.103 425.676H304.316V357.398H270.103V425.676Z" fill="white"/>
</mask>
<g mask="url(#mask2_125_4572)">
<g opacity="0.300003">
<path d="M277.1 425.37H270.35V419.168H277.1V425.37Z" fill="#CCD5D3"/>
<path d="M277.1 425.371H270.35V419.169H277.1V425.371Z" stroke="white" stroke-width="0.481964" stroke-miterlimit="10" stroke-linecap="round" stroke-linejoin="round"/>
<path d="M283.851 425.37H277.1V419.168H283.851V425.37Z" fill="#CCD5D3"/>
<path d="M283.851 425.371H277.101V419.169H283.851V425.371Z" stroke="white" stroke-width="0.481964" stroke-miterlimit="10" stroke-linecap="round" stroke-linejoin="round"/>
<path d="M290.603 425.37H283.853V419.168H290.603V425.37Z" fill="#CCD5D3"/>
<path d="M290.602 425.371H283.852V419.169H290.602V425.371Z" stroke="white" stroke-width="0.481964" stroke-miterlimit="10" stroke-linecap="round" stroke-linejoin="round"/>
<path d="M297.353 425.37H290.603V419.168H297.353V425.37Z" fill="#CCD5D3"/>
<path d="M297.354 425.371H290.603V419.169H297.354V425.371Z" stroke="white" stroke-width="0.481964" stroke-miterlimit="10" stroke-linecap="round" stroke-linejoin="round"/>
<path d="M304.105 425.37H297.355V419.168H304.105V425.37Z" fill="#CCD5D3"/>
<path d="M304.105 425.371H297.354V419.169H304.105V425.371Z" stroke="white" stroke-width="0.481964" stroke-miterlimit="10" stroke-linecap="round" stroke-linejoin="round"/>
<path d="M277.1 419.22H270.35V413.019H277.1V419.22Z" fill="#CCD5D3"/>
<path d="M277.1 419.219H270.35V413.018H277.1V419.219Z" stroke="white" stroke-width="0.481964" stroke-miterlimit="10" stroke-linecap="round" stroke-linejoin="round"/>
<path d="M283.851 419.22H277.1V413.019H283.851V419.22Z" fill="#CCD5D3"/>
<path d="M283.851 419.219H277.101V413.018H283.851V419.219Z" stroke="white" stroke-width="0.481964" stroke-miterlimit="10" stroke-linecap="round" stroke-linejoin="round"/>
<path d="M290.603 419.22H283.853V413.019H290.603V419.22Z" fill="#CCD5D3"/>
<path d="M290.602 419.219H283.852V413.018H290.602V419.219Z" stroke="white" stroke-width="0.481964" stroke-miterlimit="10" stroke-linecap="round" stroke-linejoin="round"/>
<path d="M297.353 419.22H290.603V413.019H297.353V419.22Z" fill="#CCD5D3"/>
<path d="M297.354 419.219H290.603V413.018H297.354V419.219Z" stroke="white" stroke-width="0.481964" stroke-miterlimit="10" stroke-linecap="round" stroke-linejoin="round"/>
<path d="M304.105 419.22H297.355V413.019H304.105V419.22Z" fill="#CCD5D3"/>
<path d="M304.105 419.219H297.354V413.018H304.105V419.219Z" stroke="white" stroke-width="0.481964" stroke-miterlimit="10" stroke-linecap="round" stroke-linejoin="round"/>
<path d="M277.1 413.072H270.35V406.87H277.1V413.072Z" fill="#CCD5D3"/>
<path d="M277.1 413.072H270.35V406.87H277.1V413.072Z" stroke="white" stroke-width="0.481964" stroke-miterlimit="10" stroke-linecap="round" stroke-linejoin="round"/>
<path d="M283.851 413.072H277.1V406.87H283.851V413.072Z" fill="#CCD5D3"/>
<path d="M283.851 413.072H277.101V406.87H283.851V413.072Z" stroke="white" stroke-width="0.481964" stroke-miterlimit="10" stroke-linecap="round" stroke-linejoin="round"/>
<path d="M290.603 413.072H283.853V406.87H290.603V413.072Z" fill="#CCD5D3"/>
<path d="M290.602 413.072H283.852V406.87H290.602V413.072Z" stroke="white" stroke-width="0.481964" stroke-miterlimit="10" stroke-linecap="round" stroke-linejoin="round"/>
<path d="M297.353 413.072H290.603V406.87H297.353V413.072Z" fill="#CCD5D3"/>
<path d="M297.354 413.072H290.603V406.87H297.354V413.072Z" stroke="white" stroke-width="0.481964" stroke-miterlimit="10" stroke-linecap="round" stroke-linejoin="round"/>
<path d="M304.105 413.072H297.355V406.87H304.105V413.072Z" fill="#CCD5D3"/>
<path d="M304.105 413.072H297.354V406.87H304.105V413.072Z" stroke="white" stroke-width="0.481964" stroke-miterlimit="10" stroke-linecap="round" stroke-linejoin="round"/>
<path d="M277.1 406.921H270.35V400.719H277.1V406.921Z" fill="#CCD5D3"/>
<path d="M277.1 406.92H270.35V400.719H277.1V406.92Z" stroke="white" stroke-width="0.481964" stroke-miterlimit="10" stroke-linecap="round" stroke-linejoin="round"/>
<path d="M283.851 406.921H277.1V400.719H283.851V406.921Z" fill="#CCD5D3"/>
<path d="M283.851 406.92H277.101V400.719H283.851V406.92Z" stroke="white" stroke-width="0.481964" stroke-miterlimit="10" stroke-linecap="round" stroke-linejoin="round"/>
<path d="M290.603 406.921H283.853V400.719H290.603V406.921Z" fill="#CCD5D3"/>
<path d="M290.602 406.92H283.852V400.719H290.602V406.92Z" stroke="white" stroke-width="0.481964" stroke-miterlimit="10" stroke-linecap="round" stroke-linejoin="round"/>
<path d="M297.353 406.921H290.603V400.719H297.353V406.921Z" fill="#CCD5D3"/>
<path d="M297.354 406.92H290.603V400.719H297.354V406.92Z" stroke="white" stroke-width="0.481964" stroke-miterlimit="10" stroke-linecap="round" stroke-linejoin="round"/>
<path d="M304.105 406.921H297.355V400.719H304.105V406.921Z" fill="#CCD5D3"/>
<path d="M304.105 406.92H297.354V400.719H304.105V406.92Z" stroke="white" stroke-width="0.481964" stroke-miterlimit="10" stroke-linecap="round" stroke-linejoin="round"/>
<path d="M277.1 400.771H270.35V394.569H277.1V400.771Z" fill="#CCD5D3"/>
<path d="M277.1 400.771H270.35V394.569H277.1V400.771Z" stroke="white" stroke-width="0.481964" stroke-miterlimit="10" stroke-linecap="round" stroke-linejoin="round"/>
<path d="M283.851 400.771H277.1V394.569H283.851V400.771Z" fill="#CCD5D3"/>
<path d="M283.851 400.771H277.101V394.569H283.851V400.771Z" stroke="white" stroke-width="0.481964" stroke-miterlimit="10" stroke-linecap="round" stroke-linejoin="round"/>
<path d="M290.603 400.771H283.853V394.569H290.603V400.771Z" fill="#CCD5D3"/>
<path d="M290.602 400.771H283.852V394.569H290.602V400.771Z" stroke="white" stroke-width="0.481964" stroke-miterlimit="10" stroke-linecap="round" stroke-linejoin="round"/>
<path d="M297.353 400.771H290.603V394.569H297.353V400.771Z" fill="#CCD5D3"/>
<path d="M297.354 400.771H290.603V394.569H297.354V400.771Z" stroke="white" stroke-width="0.481964" stroke-miterlimit="10" stroke-linecap="round" stroke-linejoin="round"/>
<path d="M304.105 400.771H297.355V394.569H304.105V400.771Z" fill="#CCD5D3"/>
<path d="M304.105 400.771H297.354V394.569H304.105V400.771Z" stroke="white" stroke-width="0.481964" stroke-miterlimit="10" stroke-linecap="round" stroke-linejoin="round"/>
<path d="M277.1 394.619H270.35V388.418H277.1V394.619Z" fill="#CCD5D3"/>
<path d="M277.1 394.62H270.35V388.419H277.1V394.62Z" stroke="white" stroke-width="0.481964" stroke-miterlimit="10" stroke-linecap="round" stroke-linejoin="round"/>
<path d="M283.851 394.619H277.1V388.418H283.851V394.619Z" fill="#CCD5D3"/>
<path d="M283.851 394.62H277.101V388.419H283.851V394.62Z" stroke="white" stroke-width="0.481964" stroke-miterlimit="10" stroke-linecap="round" stroke-linejoin="round"/>
<path d="M290.603 394.619H283.853V388.418H290.603V394.619Z" fill="#CCD5D3"/>
<path d="M290.602 394.62H283.852V388.419H290.602V394.62Z" stroke="white" stroke-width="0.481964" stroke-miterlimit="10" stroke-linecap="round" stroke-linejoin="round"/>
<path d="M297.353 394.619H290.603V388.418H297.353V394.619Z" fill="#CCD5D3"/>
<path d="M297.354 394.62H290.603V388.419H297.354V394.62Z" stroke="white" stroke-width="0.481964" stroke-miterlimit="10" stroke-linecap="round" stroke-linejoin="round"/>
<path d="M304.105 394.619H297.355V388.418H304.105V394.619Z" fill="#CCD5D3"/>
<path d="M304.105 394.62H297.354V388.419H304.105V394.62Z" stroke="white" stroke-width="0.481964" stroke-miterlimit="10" stroke-linecap="round" stroke-linejoin="round"/>
<path d="M277.1 388.472H270.35V382.27H277.1V388.472Z" fill="#CCD5D3"/>
<path d="M277.1 388.472H270.35V382.27H277.1V388.472Z" stroke="white" stroke-width="0.481964" stroke-miterlimit="10" stroke-linecap="round" stroke-linejoin="round"/>
<path d="M283.851 388.472H277.1V382.27H283.851V388.472Z" fill="#CCD5D3"/>
<path d="M283.851 388.472H277.101V382.27H283.851V388.472Z" stroke="white" stroke-width="0.481964" stroke-miterlimit="10" stroke-linecap="round" stroke-linejoin="round"/>
<path d="M290.603 388.472H283.853V382.27H290.603V388.472Z" fill="#CCD5D3"/>
<path d="M290.602 388.472H283.852V382.27H290.602V388.472Z" stroke="white" stroke-width="0.481964" stroke-miterlimit="10" stroke-linecap="round" stroke-linejoin="round"/>
<path d="M297.353 388.472H290.603V382.27H297.353V388.472Z" fill="#CCD5D3"/>
<path d="M297.354 388.472H290.603V382.27H297.354V388.472Z" stroke="white" stroke-width="0.481964" stroke-miterlimit="10" stroke-linecap="round" stroke-linejoin="round"/>
<path d="M304.105 388.472H297.355V382.27H304.105V388.472Z" fill="#CCD5D3"/>
<path d="M304.105 388.472H297.354V382.27H304.105V388.472Z" stroke="white" stroke-width="0.481964" stroke-miterlimit="10" stroke-linecap="round" stroke-linejoin="round"/>
<path d="M277.1 382.32H270.35V376.119H277.1V382.32Z" fill="#CCD5D3"/>
<path d="M277.1 382.321H270.35V376.119H277.1V382.321Z" stroke="white" stroke-width="0.481964" stroke-miterlimit="10" stroke-linecap="round" stroke-linejoin="round"/>
<path d="M283.851 382.32H277.1V376.119H283.851V382.32Z" fill="#CCD5D3"/>
<path d="M283.851 382.321H277.101V376.119H283.851V382.321Z" stroke="white" stroke-width="0.481964" stroke-miterlimit="10" stroke-linecap="round" stroke-linejoin="round"/>
<path d="M290.603 382.32H283.853V376.119H290.603V382.32Z" fill="#CCD5D3"/>
<path d="M290.602 382.321H283.852V376.119H290.602V382.321Z" stroke="white" stroke-width="0.481964" stroke-miterlimit="10" stroke-linecap="round" stroke-linejoin="round"/>
<path d="M297.353 382.32H290.603V376.119H297.353V382.32Z" fill="#CCD5D3"/>
<path d="M297.354 382.321H290.603V376.119H297.354V382.321Z" stroke="white" stroke-width="0.481964" stroke-miterlimit="10" stroke-linecap="round" stroke-linejoin="round"/>
<path d="M304.105 382.32H297.355V376.119H304.105V382.32Z" fill="#CCD5D3"/>
<path d="M304.105 382.321H297.354V376.119H304.105V382.321Z" stroke="white" stroke-width="0.481964" stroke-miterlimit="10" stroke-linecap="round" stroke-linejoin="round"/>
<path d="M277.1 376.171H270.35V369.969H277.1V376.171Z" fill="#CCD5D3"/>
<path d="M277.1 376.17H270.35V369.969H277.1V376.17Z" stroke="white" stroke-width="0.481964" stroke-miterlimit="10" stroke-linecap="round" stroke-linejoin="round"/>
<path d="M283.851 376.171H277.1V369.969H283.851V376.171Z" fill="#CCD5D3"/>
<path d="M283.851 376.17H277.101V369.969H283.851V376.17Z" stroke="white" stroke-width="0.481964" stroke-miterlimit="10" stroke-linecap="round" stroke-linejoin="round"/>
<path d="M290.603 376.171H283.853V369.969H290.603V376.171Z" fill="#CCD5D3"/>
<path d="M290.602 376.17H283.852V369.969H290.602V376.17Z" stroke="white" stroke-width="0.481964" stroke-miterlimit="10" stroke-linecap="round" stroke-linejoin="round"/>
<path d="M297.353 376.171H290.603V369.969H297.353V376.171Z" fill="#CCD5D3"/>
<path d="M297.354 376.17H290.603V369.969H297.354V376.17Z" stroke="white" stroke-width="0.481964" stroke-miterlimit="10" stroke-linecap="round" stroke-linejoin="round"/>
<path d="M304.105 376.171H297.355V369.969H304.105V376.171Z" fill="#CCD5D3"/>
<path d="M304.105 376.17H297.354V369.969H304.105V376.17Z" stroke="white" stroke-width="0.481964" stroke-miterlimit="10" stroke-linecap="round" stroke-linejoin="round"/>
<path d="M277.1 370.021H270.35V363.819H277.1V370.021Z" fill="#CCD5D3"/>
<path d="M277.1 370.021H270.35V363.819H277.1V370.021Z" stroke="white" stroke-width="0.481964" stroke-miterlimit="10" stroke-linecap="round" stroke-linejoin="round"/>
<path d="M283.851 370.021H277.1V363.819H283.851V370.021Z" fill="#CCD5D3"/>
<path d="M283.851 370.021H277.101V363.819H283.851V370.021Z" stroke="white" stroke-width="0.481964" stroke-miterlimit="10" stroke-linecap="round" stroke-linejoin="round"/>
<path d="M290.603 370.021H283.853V363.819H290.603V370.021Z" fill="#CCD5D3"/>
<path d="M290.602 370.021H283.852V363.819H290.602V370.021Z" stroke="white" stroke-width="0.481964" stroke-miterlimit="10" stroke-linecap="round" stroke-linejoin="round"/>
<path d="M297.353 370.021H290.603V363.819H297.353V370.021Z" fill="#CCD5D3"/>
<path d="M297.354 370.021H290.603V363.819H297.354V370.021Z" stroke="white" stroke-width="0.481964" stroke-miterlimit="10" stroke-linecap="round" stroke-linejoin="round"/>
<path d="M304.105 370.021H297.355V363.819H304.105V370.021Z" fill="#CCD5D3"/>
<path d="M304.105 370.021H297.354V363.819H304.105V370.021Z" stroke="white" stroke-width="0.481964" stroke-miterlimit="10" stroke-linecap="round" stroke-linejoin="round"/>
<path d="M277.1 363.872H270.35V357.67H277.1V363.872Z" fill="#CCD5D3"/>
<path d="M277.1 363.872H270.35V357.67H277.1V363.872Z" stroke="white" stroke-width="0.481964" stroke-miterlimit="10" stroke-linecap="round" stroke-linejoin="round"/>
<path d="M283.851 363.872H277.1V357.67H283.851V363.872Z" fill="#CCD5D3"/>
<path d="M283.851 363.872H277.101V357.67H283.851V363.872Z" stroke="white" stroke-width="0.481964" stroke-miterlimit="10" stroke-linecap="round" stroke-linejoin="round"/>
<path d="M290.603 363.872H283.853V357.67H290.603V363.872Z" fill="#CCD5D3"/>
<path d="M290.602 363.872H283.852V357.67H290.602V363.872Z" stroke="white" stroke-width="0.481964" stroke-miterlimit="10" stroke-linecap="round" stroke-linejoin="round"/>
<path d="M297.353 363.872H290.603V357.67H297.353V363.872Z" fill="#CCD5D3"/>
<path d="M297.354 363.872H290.603V357.67H297.354V363.872Z" stroke="white" stroke-width="0.481964" stroke-miterlimit="10" stroke-linecap="round" stroke-linejoin="round"/>
<path d="M304.105 363.872H297.355V357.67H304.105V363.872Z" fill="#CCD5D3"/>
<path d="M304.105 363.872H297.354V357.67H304.105V363.872Z" stroke="white" stroke-width="0.481964" stroke-miterlimit="10" stroke-linecap="round" stroke-linejoin="round"/>
</g>
</g>
<path d="M294.329 436.632C294.329 438.758 292.607 440.48 290.481 440.48C288.357 440.48 286.636 438.758 286.636 436.632C286.636 434.506 288.357 432.784 290.481 432.784C292.607 432.784 294.329 434.506 294.329 436.632Z" fill="white"/>
<path d="M294.329 436.632C294.329 438.758 292.607 440.48 290.481 440.48C288.357 440.48 286.636 438.758 286.636 436.632C286.636 434.506 288.357 432.784 290.481 432.784C292.607 432.784 294.329 434.506 294.329 436.632Z" stroke="#737A7F" stroke-width="0.481964" stroke-linecap="round" stroke-linejoin="round"/>
<path d="M303.84 433.448H302.55C302.19 433.448 301.896 433.153 301.896 432.795C301.896 432.435 302.19 432.14 302.55 432.14H303.84C304.198 432.14 304.493 432.435 304.493 432.795C304.493 433.153 304.198 433.448 303.84 433.448Z" fill="white"/>
<path d="M303.84 433.448H302.55C302.19 433.448 301.896 433.153 301.896 432.795C301.896 432.435 302.19 432.14 302.55 432.14H303.84C304.198 432.14 304.493 432.435 304.493 432.795C304.493 433.153 304.198 433.448 303.84 433.448Z" stroke="#737A7F" stroke-width="0.481964" stroke-linecap="round" stroke-linejoin="round"/>
<path d="M303.84 440.826H302.55C302.19 440.826 301.896 440.532 301.896 440.173C301.896 439.813 302.19 439.519 302.55 439.519H303.84C304.198 439.519 304.493 439.813 304.493 440.173C304.493 440.532 304.198 440.826 303.84 440.826Z" fill="white"/>
<path d="M303.84 440.826H302.55C302.19 440.826 301.896 440.532 301.896 440.173C301.896 439.813 302.19 439.519 302.55 439.519H303.84C304.198 439.519 304.493 439.813 304.493 440.173C304.493 440.532 304.198 440.826 303.84 440.826Z" stroke="#737A7F" stroke-width="0.481964" stroke-linecap="round" stroke-linejoin="round"/>
<path d="M303.84 437.355H300.63C300.271 437.355 299.977 437.061 299.977 436.702C299.977 436.342 300.271 436.048 300.63 436.048H303.84C304.198 436.048 304.493 436.342 304.493 436.702C304.493 437.061 304.198 437.355 303.84 437.355Z" fill="white"/>
<path d="M303.84 437.355H300.63C300.271 437.355 299.977 437.061 299.977 436.702C299.977 436.342 300.271 436.048 300.63 436.048H303.84C304.198 436.048 304.493 436.342 304.493 436.702C304.493 437.061 304.198 437.355 303.84 437.355Z" stroke="#737A7F" stroke-width="0.481964" stroke-linecap="round" stroke-linejoin="round"/>
<path d="M301.375 436.702C301.375 437.353 300.845 437.883 300.194 437.883C299.542 437.883 299.013 437.353 299.013 436.702C299.013 436.05 299.542 435.521 300.194 435.521C300.845 435.521 301.375 436.05 301.375 436.702Z" fill="white"/>
<path d="M301.375 436.702C301.375 437.353 300.845 437.883 300.194 437.883C299.542 437.883 299.013 437.353 299.013 436.702C299.013 436.05 299.542 435.521 300.194 435.521C300.845 435.521 301.375 436.05 301.375 436.702Z" stroke="#737A7F" stroke-width="0.481964" stroke-linecap="round" stroke-linejoin="round"/>
<path d="M303.213 432.142V440.731V432.142Z" fill="white"/>
<path d="M303.213 432.142V440.731" stroke="#737A7F" stroke-width="0.481964" stroke-linecap="round" stroke-linejoin="round"/>
<path d="M563.55 401.835C563.55 399.709 565.273 397.987 567.399 397.987C569.521 397.987 571.244 399.709 571.244 401.835C571.244 403.961 569.521 405.683 567.399 405.683C565.273 405.683 563.55 403.961 563.55 401.835Z" fill="white"/>
<path d="M563.55 401.835C563.55 399.709 565.273 397.987 567.399 397.987C569.521 397.987 571.244 399.709 571.244 401.835C571.244 403.961 569.521 405.683 567.399 405.683C565.273 405.683 563.55 403.961 563.55 401.835Z" stroke="#737A7F" stroke-width="0.481964" stroke-linecap="round" stroke-linejoin="round"/>
<path d="M554.04 405.02H555.33C555.69 405.02 555.983 405.315 555.983 405.673C555.983 406.033 555.69 406.328 555.33 406.328H554.04C553.68 406.328 553.387 406.033 553.387 405.673C553.387 405.315 553.68 405.02 554.04 405.02Z" fill="white"/>
<path d="M554.04 405.02H555.33C555.69 405.02 555.983 405.315 555.983 405.673C555.983 406.033 555.69 406.328 555.33 406.328H554.04C553.68 406.328 553.387 406.033 553.387 405.673C553.387 405.315 553.68 405.02 554.04 405.02Z" stroke="#737A7F" stroke-width="0.481964" stroke-linecap="round" stroke-linejoin="round"/>
<path d="M554.04 397.642H555.33C555.69 397.642 555.983 397.937 555.983 398.295C555.983 398.655 555.69 398.95 555.33 398.95H554.04C553.68 398.95 553.387 398.655 553.387 398.295C553.387 397.937 553.68 397.642 554.04 397.642Z" fill="white"/>
<path d="M554.04 397.642H555.33C555.69 397.642 555.983 397.937 555.983 398.295C555.983 398.655 555.69 398.95 555.33 398.95H554.04C553.68 398.95 553.387 398.655 553.387 398.295C553.387 397.937 553.68 397.642 554.04 397.642Z" stroke="#737A7F" stroke-width="0.481964" stroke-linecap="round" stroke-linejoin="round"/>
<path d="M554.04 401.114H557.251C557.609 401.114 557.904 401.408 557.904 401.767C557.904 402.127 557.609 402.421 557.251 402.421H554.04C553.68 402.421 553.387 402.127 553.387 401.767C553.387 401.408 553.68 401.114 554.04 401.114Z" fill="white"/>
<path d="M554.04 401.114H557.251C557.609 401.114 557.904 401.408 557.904 401.767C557.904 402.127 557.609 402.421 557.251 402.421H554.04C553.68 402.421 553.387 402.127 553.387 401.767C553.387 401.408 553.68 401.114 554.04 401.114Z" stroke="#737A7F" stroke-width="0.481964" stroke-linecap="round" stroke-linejoin="round"/>
<path d="M556.505 401.768C556.505 401.116 557.035 400.587 557.686 400.587C558.338 400.587 558.867 401.116 558.867 401.768C558.867 402.419 558.338 402.949 557.686 402.949C557.035 402.949 556.505 402.419 556.505 401.768Z" fill="white"/>
<path d="M556.505 401.768C556.505 401.116 557.035 400.587 557.686 400.587C558.338 400.587 558.867 401.116 558.867 401.768C558.867 402.419 558.338 402.949 557.686 402.949C557.035 402.949 556.505 402.419 556.505 401.768Z" stroke="#737A7F" stroke-width="0.481964" stroke-linecap="round" stroke-linejoin="round"/>
<path d="M554.667 406.328V397.739V406.328Z" fill="white"/>
<path d="M554.667 406.328V397.739" stroke="#737A7F" stroke-width="0.481964" stroke-linecap="round" stroke-linejoin="round"/>
<path d="M304.749 412.974H297.625C296.902 412.089 295.801 411.511 294.55 411.511C292.369 411.511 290.604 413.234 290.604 415.358C290.604 417.484 292.369 419.207 294.55 419.207C295.719 419.207 296.759 418.701 297.48 417.914H304.749V412.974Z" fill="white"/>
<path d="M304.749 412.974H297.625C296.902 412.089 295.801 411.511 294.55 411.511C292.369 411.511 290.604 413.234 290.604 415.358C290.604 417.484 292.369 419.207 294.55 419.207C295.719 419.207 296.759 418.701 297.48 417.914H304.749V412.974Z" stroke="#737A7F" stroke-width="0.481964" stroke-linecap="round" stroke-linejoin="round"/>
<path d="M297.767 415.358C297.767 417.091 296.327 418.495 294.551 418.495C292.771 418.495 291.332 417.091 291.332 415.358C291.332 413.625 292.771 412.222 294.551 412.222C296.327 412.222 297.767 413.625 297.767 415.358Z" stroke="#737A7F" stroke-width="0.481964" stroke-linecap="round" stroke-linejoin="round"/>
<path d="M295.833 416.444H294.38C293.767 416.444 293.266 415.956 293.266 415.358C293.266 414.761 293.767 414.272 294.38 414.272H295.833V416.444Z" stroke="#737A7F" stroke-width="0.481964" stroke-linecap="round" stroke-linejoin="round"/>
<path d="M299.66 414.238C299.66 414.603 299.357 414.899 298.983 414.899C298.609 414.899 298.305 414.603 298.305 414.238C298.305 413.874 298.609 413.578 298.983 413.578C299.357 413.578 299.66 413.874 299.66 414.238Z" fill="#737A7F"/>
<path d="M298.983 414.237V415.239" stroke="#737A7F" stroke-width="0.481964" stroke-linecap="round" stroke-linejoin="round"/>
<path d="M299.66 416.273C299.66 416.638 299.357 416.934 298.983 416.934C298.609 416.934 298.305 416.638 298.305 416.273C298.305 415.909 298.609 415.613 298.983 415.613C299.357 415.613 299.66 415.909 299.66 416.273Z" fill="#737A7F"/>
<path d="M298.983 416.274V417.276" stroke="#737A7F" stroke-width="0.481964" stroke-linecap="round" stroke-linejoin="round"/>
<path d="M302.705 415.36C302.705 415.754 302.376 416.076 301.971 416.076C301.567 416.076 301.238 415.754 301.238 415.36C301.238 414.966 301.567 414.646 301.971 414.646C302.376 414.646 302.705 414.966 302.705 415.36Z" stroke="#737A7F" stroke-width="0.481964" stroke-linecap="round" stroke-linejoin="round"/>
<path d="M217.719 481.514V488.637C216.834 489.36 216.257 490.461 216.257 491.712C216.257 493.893 217.979 495.659 220.103 495.659C222.229 495.659 223.95 493.893 223.95 491.712C223.95 490.543 223.446 489.503 222.659 488.782V481.514H217.719Z" fill="white"/>
<path d="M217.719 481.514V488.637C216.834 489.36 216.257 490.461 216.257 491.712C216.257 493.893 217.979 495.659 220.103 495.659C222.229 495.659 223.95 493.893 223.95 491.712C223.95 490.543 223.446 489.503 222.659 488.782V481.514H217.719Z" stroke="#737A7F" stroke-width="0.481964" stroke-linecap="round" stroke-linejoin="round"/>
<path d="M220.104 488.495C221.837 488.495 223.24 489.935 223.24 491.711C223.24 493.49 221.837 494.93 220.104 494.93C218.371 494.93 216.967 493.49 216.967 491.711C216.967 489.935 218.371 488.495 220.104 488.495Z" stroke="#737A7F" stroke-width="0.481964" stroke-linecap="round" stroke-linejoin="round"/>
<path d="M221.189 490.429V491.882C221.189 492.495 220.701 492.996 220.103 492.996C219.505 492.996 219.017 492.495 219.017 491.882V490.429H221.189Z" stroke="#737A7F" stroke-width="0.481964" stroke-linecap="round" stroke-linejoin="round"/>
<path d="M218.982 486.602C219.347 486.602 219.643 486.905 219.643 487.279C219.643 487.654 219.347 487.957 218.982 487.957C218.618 487.957 218.322 487.654 218.322 487.279C218.322 486.905 218.618 486.602 218.982 486.602Z" fill="#737A7F"/>
<path d="M218.983 487.278H219.986" stroke="#737A7F" stroke-width="0.481964" stroke-linecap="round" stroke-linejoin="round"/>
<path d="M221.018 486.602C221.382 486.602 221.678 486.905 221.678 487.279C221.678 487.654 221.382 487.957 221.018 487.957C220.653 487.957 220.357 487.654 220.357 487.279C220.357 486.905 220.653 486.602 221.018 486.602Z" fill="#737A7F"/>
<path d="M221.018 487.278H222.021" stroke="#737A7F" stroke-width="0.481964" stroke-linecap="round" stroke-linejoin="round"/>
<path d="M220.106 483.557C220.5 483.557 220.82 483.885 220.82 484.29C220.82 484.695 220.5 485.023 220.106 485.023C219.712 485.023 219.391 484.695 219.391 484.29C219.391 483.885 219.712 483.557 220.106 483.557Z" stroke="#737A7F" stroke-width="0.481964" stroke-linecap="round" stroke-linejoin="round"/>
<path d="M305.096 406.887H290.603V366.451H305.096V406.887Z" fill="white"/>
<path d="M305.095 406.885H290.602V366.449H305.095V406.885Z" stroke="#737A7F" stroke-width="0.481964" stroke-linecap="round" stroke-linejoin="round"/>
<path d="M296.283 410.66H293.055V407.801H296.283V410.66Z" fill="white"/>
<path d="M296.283 410.662H293.055V407.803H296.283V410.662Z" stroke="#737A7F" stroke-width="0.481964" stroke-linecap="round" stroke-linejoin="round"/>
<path d="M304.018 410.693H301.383V409.366H304.018V410.693Z" fill="white"/>
<path d="M304.018 410.693H301.383V409.366H304.018V410.693Z" stroke="#737A7F" stroke-width="0.481964" stroke-linecap="round" stroke-linejoin="round"/>
<path d="M301.046 404.027H293.046V392.321H301.046V404.027Z" stroke="#737A7F" stroke-width="0.481964" stroke-linecap="round" stroke-linejoin="round"/>
<path d="M302.701 398.512H298.158V397.899H302.701V398.512Z" fill="white"/>
<path d="M302.7 398.512H298.157V397.899H302.7V398.512Z" stroke="#737A7F" stroke-width="0.481964" stroke-linecap="round" stroke-linejoin="round"/>
<path d="M302.7 395.977H301.613V395.376H302.7V395.977Z" stroke="#737A7F" stroke-width="0.481964" stroke-linecap="round" stroke-linejoin="round"/>
<path d="M303.529 396.467H302.701V394.886H303.529V396.467Z" stroke="#737A7F" stroke-width="0.481964" stroke-linecap="round" stroke-linejoin="round"/>
<path d="M303.529 398.996H302.701V397.414H303.529V398.996Z" stroke="#737A7F" stroke-width="0.481964" stroke-linecap="round" stroke-linejoin="round"/>
<path d="M302.7 400.827H301.613V400.226H302.7V400.827Z" stroke="#737A7F" stroke-width="0.481964" stroke-linecap="round" stroke-linejoin="round"/>
<path d="M303.529 401.317H302.701V399.736H303.529V401.317Z" stroke="#737A7F" stroke-width="0.481964" stroke-linecap="round" stroke-linejoin="round"/>
<path d="M564.948 450.904V443.78C565.833 443.058 566.41 441.957 566.41 440.706C566.41 438.525 564.688 436.759 562.564 436.759C560.438 436.759 558.715 438.525 558.715 440.706C558.715 441.875 559.221 442.915 560.008 443.636V450.904H564.948Z" fill="white"/>
<path d="M564.948 450.904V443.78C565.833 443.058 566.41 441.957 566.41 440.706C566.41 438.525 564.688 436.759 562.564 436.759C560.438 436.759 558.715 438.525 558.715 440.706C558.715 441.875 559.221 442.915 560.008 443.636V450.904H564.948Z" stroke="#737A7F" stroke-width="0.481964" stroke-linecap="round" stroke-linejoin="round"/>
<path d="M562.563 443.923C560.83 443.923 559.427 442.483 559.427 440.707C559.427 438.928 560.83 437.488 562.563 437.488C564.296 437.488 565.699 438.928 565.699 440.707C565.699 442.483 564.296 443.923 562.563 443.923Z" stroke="#737A7F" stroke-width="0.481964" stroke-linecap="round" stroke-linejoin="round"/>
<path d="M561.477 441.989V440.536C561.477 439.923 561.965 439.422 562.563 439.422C563.16 439.422 563.649 439.923 563.649 440.536V441.989H561.477Z" stroke="#737A7F" stroke-width="0.481964" stroke-linecap="round" stroke-linejoin="round"/>
<path d="M563.684 445.817C563.319 445.817 563.023 445.513 563.023 445.14C563.023 444.765 563.319 444.462 563.684 444.462C564.048 444.462 564.344 444.765 564.344 445.14C564.344 445.513 564.048 445.817 563.684 445.817Z" fill="#737A7F"/>
<path d="M563.684 445.139H562.681" stroke="#737A7F" stroke-width="0.481964" stroke-linecap="round" stroke-linejoin="round"/>
<path d="M561.649 445.817C561.285 445.817 560.989 445.513 560.989 445.14C560.989 444.765 561.285 444.462 561.649 444.462C562.013 444.462 562.309 444.765 562.309 445.14C562.309 445.513 562.013 445.817 561.649 445.817Z" fill="#737A7F"/>
<path d="M561.649 445.139H560.646" stroke="#737A7F" stroke-width="0.481964" stroke-linecap="round" stroke-linejoin="round"/>
<path d="M562.561 448.86C562.165 448.86 561.845 448.532 561.845 448.127C561.845 447.722 562.165 447.394 562.561 447.394C562.955 447.394 563.275 447.722 563.275 448.127C563.275 448.532 562.955 448.86 562.561 448.86Z" stroke="#737A7F" stroke-width="0.481964" stroke-linecap="round" stroke-linejoin="round"/>
<path d="M573.803 436.783H599.024V451.276H573.803V436.783Z" fill="white"/>
<path d="M573.803 436.783H599.025V451.276H573.803V436.783Z" stroke="#737A7F" stroke-width="0.481964" stroke-linecap="round" stroke-linejoin="round"/>
<path d="M568.049 439.669H570.908V442.897H568.049V439.669Z" fill="white"/>
<path d="M568.05 439.669H570.909V442.896H568.05V439.669Z" stroke="#737A7F" stroke-width="0.481964" stroke-linecap="round" stroke-linejoin="round"/>
<path d="M568.839 447.564H570.166V450.198H568.839V447.564Z" fill="white"/>
<path d="M568.839 447.564H570.166V450.198H568.839V447.564Z" stroke="#737A7F" stroke-width="0.481964" stroke-linecap="round" stroke-linejoin="round"/>
<path d="M576.662 439.226H588.367V447.226H576.662V439.226Z" fill="white"/>
<path d="M576.662 439.228H588.368V447.228H576.662V439.228Z" stroke="#737A7F" stroke-width="0.481964" stroke-linecap="round" stroke-linejoin="round"/>
<path d="M582.176 444.34H582.789V448.881H582.176V444.34Z" fill="white"/>
<path d="M582.176 444.34H582.789V448.881H582.176V444.34Z" stroke="#737A7F" stroke-width="0.481964" stroke-linecap="round" stroke-linejoin="round"/>
<path d="M584.712 447.794H585.313V448.881H584.712V447.794Z" fill="white"/>
<path d="M584.712 447.795H585.313V448.882H584.712V447.795Z" stroke="#737A7F" stroke-width="0.481964" stroke-linecap="round" stroke-linejoin="round"/>
<path d="M584.222 448.881H585.803V449.71H584.222V448.881Z" stroke="#737A7F" stroke-width="0.481964" stroke-linecap="round" stroke-linejoin="round"/>
<path d="M581.691 448.881H583.272V449.71H581.691V448.881Z" stroke="#737A7F" stroke-width="0.481964" stroke-linecap="round" stroke-linejoin="round"/>
<path d="M579.862 447.794H580.463V448.881H579.862V447.794Z" fill="white"/>
<path d="M579.862 447.795H580.463V448.882H579.862V447.795Z" stroke="#737A7F" stroke-width="0.481964" stroke-linecap="round" stroke-linejoin="round"/>
<path d="M579.372 448.881H580.953V449.71H579.372V448.881Z" stroke="#737A7F" stroke-width="0.481964" stroke-linecap="round" stroke-linejoin="round"/>
<path d="M214.968 525.912H226.674V533.912H214.968V525.912Z" stroke="#737A7F" stroke-width="0.481964" stroke-linecap="round" stroke-linejoin="round"/>
<path d="M220.481 531.022H221.094V535.563H220.481V531.022Z" fill="white"/>
<path d="M220.482 531.022H221.095V535.563H220.482V531.022Z" stroke="#737A7F" stroke-width="0.481964" stroke-linecap="round" stroke-linejoin="round"/>
<path d="M223.018 534.476H223.619V535.563H223.018V534.476Z" stroke="#737A7F" stroke-width="0.481964" stroke-linecap="round" stroke-linejoin="round"/>
<path d="M222.527 535.564H224.109V536.393H222.527V535.564Z" stroke="#737A7F" stroke-width="0.481964" stroke-linecap="round" stroke-linejoin="round"/>
<path d="M219.997 535.564H221.578V536.393H219.997V535.564Z" stroke="#737A7F" stroke-width="0.481964" stroke-linecap="round" stroke-linejoin="round"/>
<path d="M218.167 534.476H218.768V535.563H218.167V534.476Z" stroke="#737A7F" stroke-width="0.481964" stroke-linecap="round" stroke-linejoin="round"/>
<path d="M217.677 535.564H219.259V536.393H217.677V535.564Z" stroke="#737A7F" stroke-width="0.481964" stroke-linecap="round" stroke-linejoin="round"/>
<path d="M213.746 486.737H210.518V483.878H213.746V486.737Z" fill="white"/>
<path d="M213.746 486.735H210.518V483.876H213.746V486.735Z" stroke="#737A7F" stroke-width="0.481964" stroke-linecap="round" stroke-linejoin="round"/>
<path d="M554.402 409.657H572.546Z" fill="white"/>
<path d="M554.402 409.657H572.546" stroke="#737A7F" stroke-width="0.481964" stroke-linecap="round" stroke-linejoin="round"/>
<path d="M554.402 410.766H572.546Z" fill="white"/>
<path d="M554.402 410.766H572.546" stroke="#737A7F" stroke-width="0.481964" stroke-linecap="round" stroke-linejoin="round"/>
<path d="M572.889 410.212H597.697Z" fill="white"/>
<path d="M572.889 410.212H597.697" stroke="#737A7F" stroke-width="0.481964" stroke-linecap="round" stroke-linejoin="round"/>
<path d="M303.212 426.228H290.04Z" fill="white"/>
<path d="M303.212 426.228H290.04" stroke="#737A7F" stroke-width="0.481964" stroke-linecap="round" stroke-linejoin="round"/>
<path d="M303.212 425.119H290.04Z" fill="white"/>
<path d="M303.212 425.119H290.04" stroke="#737A7F" stroke-width="0.481964" stroke-linecap="round" stroke-linejoin="round"/>
<path d="M289.791 425.674H271.78Z" fill="white"/>
<path d="M289.791 425.674H271.78" stroke="#737A7F" stroke-width="0.481964" stroke-linecap="round" stroke-linejoin="round"/>
<path d="M317.917 87.7924L502.122 360.322" stroke="#CCD5D3" stroke-width="0.240982"/>
<path d="M59.1021 549.63L355.389 640.65" stroke="#CCD5D3" stroke-width="0.240982"/>
<path d="M69.6885 639.492L348.816 550.636" stroke="#CCD5D3" stroke-width="0.240982"/>
<path d="M348.958 595.687L461.483 639.492L643.664 541.161" stroke="#CCD5D3" stroke-width="0.240982"/>
<path d="M463.729 595.84L351.204 639.646" stroke="#CCD5D3" stroke-width="0.240982"/>
<path d="M464.545 550.655L624.858 638.06" stroke="#CCD5D3" stroke-width="0.240982"/>
<path d="M498.855 446.407L315.16 355.729L493.591 45.5197" stroke="#CCD5D3" stroke-width="0.240982"/>
<path d="M314.445 446.407L501.919 353.281" stroke="#CCD5D3" stroke-width="0.240982"/>
<path d="M355.902 588.947L357.189 588.283" stroke="#CCD5D3" stroke-width="0.240982" stroke-linecap="round" stroke-linejoin="round"/>
<path d="M358.928 587.386L449.421 540.737" stroke="#CCD5D3" stroke-width="0.240982" stroke-linecap="round" stroke-linejoin="round" stroke-dasharray="2.94 1.96"/>
<path d="M450.292 540.289L451.578 539.626" stroke="#CCD5D3" stroke-width="0.240982" stroke-linecap="round" stroke-linejoin="round"/>
<path d="M456.275 588.386L454.988 587.722" stroke="#CCD5D3" stroke-width="0.240982" stroke-linecap="round" stroke-linejoin="round"/>
<path d="M453.248 586.825L362.755 540.176" stroke="#CCD5D3" stroke-width="0.240982" stroke-linecap="round" stroke-linejoin="round" stroke-dasharray="2.94 1.96"/>
<path d="M361.885 539.729L360.598 539.065" stroke="#CCD5D3" stroke-width="0.240982" stroke-linecap="round" stroke-linejoin="round"/>
<path d="M615.286 484.897H641.331" stroke="#CCD5D3" stroke-width="0.965416" stroke-miterlimit="10" stroke-linecap="round" stroke-linejoin="round"/>
<path d="M615.286 481.63H641.331" stroke="#CCD5D3" stroke-width="0.965416" stroke-miterlimit="10" stroke-linecap="round" stroke-linejoin="round"/>
<path d="M647.756 482.905V11.7214" stroke="#CCD5D3" stroke-width="0.965416" stroke-miterlimit="10" stroke-linecap="round" stroke-linejoin="round"/>
<path d="M645.076 482.905V11.7214" stroke="#CCD5D3" stroke-width="0.965416" stroke-miterlimit="10" stroke-linecap="round" stroke-linejoin="round"/>
<path d="M26.4958 354.197H22.8201V487.042H26.4958V354.197Z" stroke="#CCD5D3" stroke-width="0.965416" stroke-miterlimit="10" stroke-linecap="round" stroke-linejoin="round"/>
<path d="M56.9367 495.871H29.5823V492.502H56.9367V495.871Z" stroke="#CCD5D3" stroke-width="0.965416" stroke-miterlimit="10" stroke-linecap="round" stroke-linejoin="round"/>
<path d="M126.492 357.49H7.29932V353.789H126.492V357.49Z" stroke="#CCD5D3" stroke-width="0.965416" stroke-miterlimit="10" stroke-linecap="round" stroke-linejoin="round"/>
<path d="M117.271 146.506V341.74" stroke="#CCD5D3" stroke-width="0.965416" stroke-miterlimit="10" stroke-linecap="round" stroke-linejoin="round"/>
<path d="M307.297 357.668H267.678V354.095H307.297V357.668Z" stroke="#CCD5D3" stroke-width="0.965416" stroke-miterlimit="10" stroke-linecap="round" stroke-linejoin="round"/>
<path d="M497.214 356.036H314.956V352.155H497.214V356.036Z" stroke="#CCD5D3" stroke-width="0.965416" stroke-miterlimit="10" stroke-linecap="round" stroke-linejoin="round"/>
<path d="M501.918 447.886H313.424V444.869H501.918V447.886Z" stroke="#CCD5D3" stroke-width="0.965416" stroke-miterlimit="10" stroke-linecap="round" stroke-linejoin="round"/>
<path d="M56.1082 460.391H126.359V480.813" stroke="#CCD5D3" stroke-width="0.965416" stroke-miterlimit="10" stroke-linecap="round" stroke-linejoin="round"/>
<path d="M94.501 483.383V535.98" stroke="#CCD5D3" stroke-width="0.965416" stroke-miterlimit="10" stroke-linecap="round" stroke-linejoin="round"/>
<path d="M99.697 511.513V535.98" stroke="#CCD5D3" stroke-width="0.965416" stroke-miterlimit="10" stroke-linecap="round" stroke-linejoin="round"/>
<path d="M99.697 483.383V506.761" stroke="#CCD5D3" stroke-width="0.965416" stroke-miterlimit="10" stroke-linecap="round" stroke-linejoin="round"/>
<path d="M104.916 511.513V535.98" stroke="#CCD5D3" stroke-width="0.965416" stroke-miterlimit="10" stroke-linecap="round" stroke-linejoin="round"/>
<path d="M104.916 483.383V506.761" stroke="#CCD5D3" stroke-width="0.965416" stroke-miterlimit="10" stroke-linecap="round" stroke-linejoin="round"/>
<path d="M110.135 511.513V535.98" stroke="#CCD5D3" stroke-width="0.965416" stroke-miterlimit="10" stroke-linecap="round" stroke-linejoin="round"/>
<path d="M110.135 483.383V506.761" stroke="#CCD5D3" stroke-width="0.965416" stroke-miterlimit="10" stroke-linecap="round" stroke-linejoin="round"/>
<path d="M115.354 511.513V535.98" stroke="#CCD5D3" stroke-width="0.965416" stroke-miterlimit="10" stroke-linecap="round" stroke-linejoin="round"/>
<path d="M115.354 483.383V506.761" stroke="#CCD5D3" stroke-width="0.965416" stroke-miterlimit="10" stroke-linecap="round" stroke-linejoin="round"/>
<path d="M120.573 511.513V535.98" stroke="#CCD5D3" stroke-width="0.965416" stroke-miterlimit="10" stroke-linecap="round" stroke-linejoin="round"/>
<path d="M120.573 483.383V506.761" stroke="#CCD5D3" stroke-width="0.965416" stroke-miterlimit="10" stroke-linecap="round" stroke-linejoin="round"/>
<path d="M125.792 511.513V535.98" stroke="#CCD5D3" stroke-width="0.965416" stroke-miterlimit="10" stroke-linecap="round" stroke-linejoin="round"/>
<path d="M125.792 483.383V506.761" stroke="#CCD5D3" stroke-width="0.965416" stroke-miterlimit="10" stroke-linecap="round" stroke-linejoin="round"/>
<path d="M131.01 511.513V535.98" stroke="#CCD5D3" stroke-width="0.965416" stroke-miterlimit="10" stroke-linecap="round" stroke-linejoin="round"/>
<path d="M131.01 483.383V506.761" stroke="#CCD5D3" stroke-width="0.965416" stroke-miterlimit="10" stroke-linecap="round" stroke-linejoin="round"/>
<path d="M136.23 511.513V535.98" stroke="#CCD5D3" stroke-width="0.965416" stroke-miterlimit="10" stroke-linecap="round" stroke-linejoin="round"/>
<path d="M136.23 483.383V506.761" stroke="#CCD5D3" stroke-width="0.965416" stroke-miterlimit="10" stroke-linecap="round" stroke-linejoin="round"/>
<path d="M141.448 511.513V535.98" stroke="#CCD5D3" stroke-width="0.965416" stroke-miterlimit="10" stroke-linecap="round" stroke-linejoin="round"/>
<path d="M141.448 483.383V506.761" stroke="#CCD5D3" stroke-width="0.965416" stroke-miterlimit="10" stroke-linecap="round" stroke-linejoin="round"/>
<path d="M527.74 483.383V535.98" stroke="#CCD5D3" stroke-width="0.965416" stroke-miterlimit="10" stroke-linecap="round" stroke-linejoin="round"/>
<path d="M532.937 511.513V535.98" stroke="#CCD5D3" stroke-width="0.965416" stroke-miterlimit="10" stroke-linecap="round" stroke-linejoin="round"/>
<path d="M532.937 483.383V506.761" stroke="#CCD5D3" stroke-width="0.965416" stroke-miterlimit="10" stroke-linecap="round" stroke-linejoin="round"/>
<path d="M538.156 511.513V535.98" stroke="#CCD5D3" stroke-width="0.965416" stroke-miterlimit="10" stroke-linecap="round" stroke-linejoin="round"/>
<path d="M538.156 483.383V506.761" stroke="#CCD5D3" stroke-width="0.965416" stroke-miterlimit="10" stroke-linecap="round" stroke-linejoin="round"/>
<path d="M543.374 511.513V535.98" stroke="#CCD5D3" stroke-width="0.965416" stroke-miterlimit="10" stroke-linecap="round" stroke-linejoin="round"/>
<path d="M543.374 483.383V506.761" stroke="#CCD5D3" stroke-width="0.965416" stroke-miterlimit="10" stroke-linecap="round" stroke-linejoin="round"/>
<path d="M548.593 511.513V535.98" stroke="#CCD5D3" stroke-width="0.965416" stroke-miterlimit="10" stroke-linecap="round" stroke-linejoin="round"/>
<path d="M548.593 483.383V506.761" stroke="#CCD5D3" stroke-width="0.965416" stroke-miterlimit="10" stroke-linecap="round" stroke-linejoin="round"/>
<path d="M553.812 511.513V535.98" stroke="#CCD5D3" stroke-width="0.965416" stroke-miterlimit="10" stroke-linecap="round" stroke-linejoin="round"/>
<path d="M553.812 483.383V506.761" stroke="#CCD5D3" stroke-width="0.965416" stroke-miterlimit="10" stroke-linecap="round" stroke-linejoin="round"/>
<path d="M559.031 511.513V535.98" stroke="#CCD5D3" stroke-width="0.965416" stroke-miterlimit="10" stroke-linecap="round" stroke-linejoin="round"/>
<path d="M559.031 483.383V506.761" stroke="#CCD5D3" stroke-width="0.965416" stroke-miterlimit="10" stroke-linecap="round" stroke-linejoin="round"/>
<path d="M564.25 511.513V535.98" stroke="#CCD5D3" stroke-width="0.965416" stroke-miterlimit="10" stroke-linecap="round" stroke-linejoin="round"/>
<path d="M564.25 483.383V506.761" stroke="#CCD5D3" stroke-width="0.965416" stroke-miterlimit="10" stroke-linecap="round" stroke-linejoin="round"/>
<path d="M569.468 511.513V535.98" stroke="#CCD5D3" stroke-width="0.965416" stroke-miterlimit="10" stroke-linecap="round" stroke-linejoin="round"/>
<path d="M569.468 483.383V506.761" stroke="#CCD5D3" stroke-width="0.965416" stroke-miterlimit="10" stroke-linecap="round" stroke-linejoin="round"/>
<path d="M574.688 511.513V535.98" stroke="#CCD5D3" stroke-width="0.965416" stroke-miterlimit="10" stroke-linecap="round" stroke-linejoin="round"/>
<path d="M574.688 483.383V506.761" stroke="#CCD5D3" stroke-width="0.965416" stroke-miterlimit="10" stroke-linecap="round" stroke-linejoin="round"/>
<path d="M355.799 553.842H348.443V552.004H355.799V553.842Z" stroke="#CCD5D3" stroke-width="0.965416" stroke-miterlimit="10"/>
<path d="M355.799 590.581H349.978V588.742H355.799V590.581Z" stroke="#CCD5D3" stroke-width="0.965416" stroke-miterlimit="10"/>
<path d="M357.892 595.227H356.054V589.406H357.892V595.227Z" stroke="#CCD5D3" stroke-width="0.965416" stroke-miterlimit="10"/>
<path d="M391.997 595.227H390.158V589.406H391.997V595.227Z" stroke="#CCD5D3" stroke-width="0.965416" stroke-miterlimit="10"/>
<path d="M423.141 595.227H421.302V589.406H423.141V595.227Z" stroke="#CCD5D3" stroke-width="0.965416" stroke-miterlimit="10"/>
<path d="M457.296 595.227H455.458V589.406H457.296V595.227Z" stroke="#CCD5D3" stroke-width="0.965416" stroke-miterlimit="10"/>
<path d="M457.246 588.948H464.109V590.786H457.246V588.948Z" stroke="#CCD5D3" stroke-width="0.965416" stroke-miterlimit="10"/>
<path d="M457.246 551.984H464.618V553.822H457.246V551.984Z" stroke="#CCD5D3" stroke-width="0.965416" stroke-miterlimit="10"/>
<path d="M353.961 553.922V589.048" stroke="#CCD5D3" stroke-width="0.965416" stroke-miterlimit="10"/>
<path d="M355.805 553.922V589.048" stroke="#CCD5D3" stroke-width="0.965416" stroke-miterlimit="10"/>
<path d="M357.944 590.784H390.16" stroke="#CCD5D3" stroke-width="0.965416" stroke-miterlimit="10"/>
<path d="M355.805 589.144H457.297" stroke="#CCD5D3" stroke-width="0.965416" stroke-miterlimit="10"/>
<path d="M391.997 590.888H421.303" stroke="#CCD5D3" stroke-width="0.965416" stroke-miterlimit="10"/>
<path d="M423.141 590.888H455.367" stroke="#CCD5D3" stroke-width="0.965416" stroke-miterlimit="10"/>
<path d="M459.2 588.862V553.787" stroke="#CCD5D3" stroke-width="0.965416" stroke-miterlimit="10"/>
<path d="M457.242 588.862V553.787" stroke="#CCD5D3" stroke-width="0.965416" stroke-miterlimit="10"/>
<path d="M451.578 540.55H362.844V537.656H451.578V540.55Z" stroke="#CCD5D3" stroke-width="0.965416" stroke-miterlimit="10"/>
<path d="M165.875 433.229H270.537" stroke="#CCD5D3" stroke-width="0.965416" stroke-miterlimit="10"/>
<path d="M617.071 120.706H528.036" stroke="#CCD5D3" stroke-width="0.965416" stroke-miterlimit="10"/>
<path d="M204.575 524.516H238.104Z" fill="white"/>
<path d="M204.575 524.516H238.104" stroke="#737A7F" stroke-width="0.481964" stroke-miterlimit="10" stroke-linecap="round" stroke-linejoin="round"/>
<path d="M129.014 162.744H102.915V171.52H129.014V162.744ZM129.014 192.764H102.915V201.541H129.014V192.764ZM129.014 222.582H102.915V231.358H129.014V222.582ZM129.014 252.502H102.915V261.279H129.014V252.502ZM129.014 282.525H102.915V291.094H129.014V282.525ZM129.014 312.226H102.915V321.193H129.014V312.226ZM67.9529 682.276H83.474V639.165H67.9529V682.276ZM114.874 682.276H130.396V639.165H114.874V682.276ZM162.506 682.276H178.027V639.165H162.506V682.276ZM209.68 682.276H225.201V639.165H209.68V682.276ZM256.855 682.276H272.376V639.165H256.855V682.276ZM304.234 682.276H319.755V639.165H304.234V682.276ZM351.51 682.276H367.031V639.165H351.51V682.276ZM446.064 682.276H461.585V639.165H446.064V682.276ZM493.341 682.276H508.862V639.165H493.341V682.276ZM540.617 682.276H556.138V639.165H540.617V682.276ZM587.894 682.276H603.415V639.165H587.894V682.276ZM624.486 682.276H663.455V666.347H624.486V682.276ZM624.486 638.267H663.455V622.338H624.486V638.267ZM624.486 590.99H663.455V575.061H624.486V590.99ZM639.357 543.815H663.455V527.887H639.357V543.815ZM639.357 496.845H663.455V480.916H639.357V496.845ZM630.179 449.16H663.455V433.231H630.179V449.16ZM630.179 401.883H663.455V385.954H630.179V401.883ZM638.884 6.20821V21.1684H663.968V0.899169L638.884 6.20821ZM638.884 68.3429H663.968V57.826H638.884V68.3429ZM638.884 115.568H663.968V105.051H638.884V115.568ZM638.884 163.865H663.968V151.306H638.884V163.865ZM638.884 210.173H663.968V199.451H638.884V210.173ZM638.884 257.551H663.968V246.829H638.884V257.551ZM638.884 304.778H663.968V294.057H638.884V304.778ZM630.179 357.67H663.455V341.742H630.179V357.67ZM601.701 341.74H589.886V366.585H601.701V341.74ZM554.198 341.74H542.383V366.585H554.198V341.74ZM459.819 341.74H448.004V366.585H459.819V341.74ZM400.829 366.585H412.645V341.74H400.829V366.585ZM365.267 341.74H353.451V366.585H365.267V341.74ZM270.742 341.74H258.927V366.585H270.742V341.74ZM223.553 341.74H211.737V366.585H223.553V341.74ZM176.072 341.74H164.256V366.585H176.072V341.74ZM128.796 341.74H116.981V366.585H128.796V341.74ZM81.4955 341.74H69.68V366.585H81.4955V341.74ZM31.3965 341.74H7.29834V357.49H31.3965V341.74ZM31.3965 386.146H7.29834V401.896H31.3965V386.146ZM31.3965 433.321H7.29834V449.071H31.3965V433.321ZM31.3965 480.596H7.29834V496.346H31.3965V480.596ZM31.3965 527.963H7.29834V543.713H31.3965V527.963ZM7.29983 590.901H46.2512V575.15H7.29983V590.901ZM7.29983 638.176H46.2512V622.426H7.29983V638.176ZM7.29983 681.562H46.2512V665.812H7.29983V681.562Z" fill="#997E5B"/>
<path d="M289.421 477.351V481.692H307.114V498.784H314.833V485.08H356.74V498.656H364.457V477.363L289.421 477.351ZM116.719 428.533H120.579V383.435H116.719V428.533ZM69.6007 533.317H62.279V485.043H69.6007V533.317ZM241.695 481.692H260.661V499.841H241.695V481.692ZM356.74 533.317H314.833V520.002H307.114V536.212H241.695V504.667H265.486V476.869H205.372L197.653 476.868V490.574H205.372V481.692H236.871V536.212H174.959V477.326H165.72V485.043H167.242V533.317H73.4594V485.043H146.669V477.326H141.814C141.851 461.388 141.855 453.143 141.833 448.842H141.842V433.229H137.985V444.725L137.946 444.728C137.95 444.775 137.952 444.869 137.953 444.982H54.1526V460.874H58.0098V448.842H137.977C137.992 455.014 137.976 466.986 137.953 477.326H54.5602V550.776H62.2775V541.037H364.457V520.094H356.74V533.317ZM608.746 533.171H601.464V485.008H608.746V533.171ZM601.464 454.392L604.89 454.394L604.904 477.289H601.464V454.392ZM550.373 418.025H548.774V393H550.373V418.025ZM550.373 450.523H539.263L539.251 421.885H550.373V450.523ZM608.718 450.497C608.718 450.497 605.932 450.503 601.464 450.51V433.025H597.604V449.301H554.232V393.002H597.833V415.974H601.692V386.577H597.833V389.143H548.773V366.849H597.833V369.414H601.692V362.99H535.27V371.759H539.127V366.849H544.914V389.143H539.127V384.231H535.27V397.696H539.127V393.002H544.914V418.025H539.251V413.421H535.392V418.025H529.487V421.885H535.392L535.403 454.361L597.604 454.388V477.289H595.251V485.006H597.604V533.171H505.982V485.006H576.16V477.289H449.045V498.677H456.765V485.006H498.263V533.171H456.765V519.752H449.045V540.889H608.746V550.811H616.465V477.289H608.718V450.497ZM526.637 121.537H530.497V108.894H614.971V121.537H618.831V105.034H526.637V121.537ZM501.509 94.4887H500.267V56.1131H501.509V94.4887ZM501.509 151.816H500.267V111.845H501.509V151.816ZM501.509 341.739H500.267V169.174H501.509V341.739ZM312.551 151.816H311.309V103.415H312.551V151.816ZM312.551 341.653H311.309V169.175H312.551V341.653ZM663.97 -3.99462e-05C574.884 18.859 466.013 43.4719 349.07 73.3775C282.682 90.3548 199.868 113.836 102.916 143.176V152.574C102.916 152.574 226.217 116.78 306.962 94.6241V357.668H303.417V444.527L271.664 444.631V383.291H267.325V444.648L167.805 444.976V432.923H163.947V453.754H167.805V448.835L311.388 448.36V448.341H316.896V91.9093C330.18 88.2931 341.989 85.1469 351.46 82.7237C389.75 72.9327 468.255 54.1227 495.922 47.5136V448.444H505.854V421.97H510.29V418.023H505.854V43.9435L505.863 42.7386C505.863 42.7386 609.229 19.0658 643.492 11.7218C648.861 10.5704 655.906 9.09777 663.97 7.42873V-3.99462e-05Z" fill="#997E5B"/>
<path d="M102.915 341.943V146.302" stroke="#997E5B" stroke-width="1.70175" stroke-miterlimit="10" stroke-linecap="round" stroke-dasharray="9.65 3.38"/>
<path d="M663.455 681.561H7.29932V341.74H663.455V681.561Z" stroke="#997E5B" stroke-width="1.70175" stroke-miterlimit="10" stroke-linecap="round" stroke-dasharray="9.65 3.38"/>
<path d="M141.014 511.192H94.9089V506.911H141.014V511.192Z" stroke="#997E5B" stroke-width="1.92934" stroke-miterlimit="10"/>
<path d="M574.252 511.192H528.149V506.911H574.252V511.192Z" stroke="#997E5B" stroke-width="1.92934" stroke-miterlimit="10"/>
<path d="M464.138 552.289V595.583H348.958V552.289" stroke="#997E5B" stroke-width="1.92934" stroke-miterlimit="10"/>
<path d="M167.406 550.028H62.2773V546.149H167.406V550.028Z" stroke="#997E5B" stroke-width="1.44589" stroke-miterlimit="10"/>
<path d="M611.958 550.028H456.829V546.149H611.958V550.028Z" stroke="#997E5B" stroke-width="1.44589" stroke-miterlimit="10"/>
<path d="M174.963 541.036H167.406V550.028H174.963V541.036Z" stroke="#997E5B" stroke-width="1.44589" stroke-miterlimit="10"/>
<path d="M363.791 541.036H356.514V550.028H363.791V541.036Z" stroke="#997E5B" stroke-width="1.44589" stroke-miterlimit="10"/>
<path d="M456.576 541.036H449.299V550.028H456.576V541.036Z" stroke="#997E5B" stroke-width="1.44589" stroke-miterlimit="10"/>
<path d="M311.025 546.149V541.036H307.246V546.149H282.178V541.036H278.4V546.149H174.963V550.028H356.514V546.149H311.025Z" stroke="#997E5B" stroke-width="1.44589" stroke-miterlimit="10"/>
<path d="M506.002 540.889H502.123V546.149H506.002V540.889Z" stroke="#997E5B" stroke-width="1.44589" stroke-miterlimit="10"/>
</g>
<defs>
<clipPath id="clip0_125_4572">
<rect width="671" height="682" fill="white"/>
</clipPath>
</defs>
</svg>
